<?xml version="1.0" encoding="UTF-8"?>
<svg version="1.1" xmlns="http://www.w3.org/2000/svg" width="162" height="216">
<path d="M0 0 C53.46 0 106.92 0 162 0 C162 71.28 162 142.56 162 216 C108.54 216 55.08 216 0 216 C0 144.72 0 73.44 0 0 Z " fill="#031057" transform="translate(0,0)"/>
<path d="M0 0 C4.18666582 3.41279044 8.17856852 7.04592986 12.1484375 10.70703125 C14.36121601 12.75624231 14.36121601 12.75624231 17.3125 14.625 C17.1875 16.375 17.1875 16.375 16.3125 18.625 C13.875 20.4375 13.875 20.4375 12.26171875 21.40625 C8.91868417 23.49648405 5.8243319 25.95640425 2.6796875 28.33203125 C0.3125 29.625 0.3125 29.625 -1.64453125 29.6171875 C-4.6137959 28.17513545 -6.78858424 26.13015931 -9.25 23.9375 C-22.30148408 12.63227017 -35.44543511 8.39216594 -52.6875 9.625 C-61.59144006 11.48418748 -69.93500585 16.30689015 -75.1875 23.875 C-78.18541022 29.37116873 -78.39761666 34.48166519 -77.6875 40.625 C-73.74356435 51.9776372 -63.19805427 61.36972287 -52.6875 66.625 C-52.7189209 66.00979492 -52.7503418 65.39458984 -52.78271484 64.76074219 C-52.90764591 61.96587083 -52.98552974 59.17158597 -53.0625 56.375 C-53.11277344 55.40691406 -53.16304687 54.43882813 -53.21484375 53.44140625 C-53.27114127 50.72035927 -53.23844074 48.29149609 -52.6875 45.625 C-50.046875 43.24609375 -50.046875 43.24609375 -46.6875 41.625 C-43.60353082 39.29044318 -40.54596874 36.92464936 -37.4921875 34.55078125 C-35.05549608 32.87767698 -33.56274138 32.03083551 -30.6875 31.625 C-30.6875 32.285 -30.6875 32.945 -30.6875 33.625 C-29.86507812 33.851875 -29.04265625 34.07875 -28.1953125 34.3125 C-23.91058599 35.91569388 -20.37200158 38.12034635 -16.5625 40.625 C-15.82056396 41.11049316 -15.07862793 41.59598633 -14.31420898 42.09619141 C4.05097959 54.31059683 4.05097959 54.31059683 6.3125 61.625 C6.9725 61.625 7.6325 61.625 8.3125 61.625 C16.58941373 71.45031596 18.25306882 83.21510697 17.3125 95.625 C16.89440453 98.51031816 16.24532901 100.82651296 15.3125 103.625 C15.03792969 104.56666016 15.03792969 104.56666016 14.7578125 105.52734375 C10.48375592 118.85079172 0.23124098 128.14254997 -11.6875 134.625 C-12.42742187 135.04136719 -13.16734375 135.45773438 -13.9296875 135.88671875 C-17.63453872 137.87895006 -20.36328645 139.16552669 -24.6875 138.625 C-24.6875 139.285 -24.6875 139.945 -24.6875 140.625 C-37.25848883 144.81532961 -54.45465527 142.88006228 -66.34375 137.33203125 C-67.4471875 136.76871094 -68.550625 136.20539063 -69.6875 135.625 C-70.7084375 135.13386719 -71.729375 134.64273438 -72.78125 134.13671875 C-84.12804459 128.35421766 -93.81270621 119.67156399 -102.6875 110.625 C-101.18233965 106.8451872 -99.00448386 105.02042229 -95.8125 102.5625 C-94.94882813 101.89089844 -94.08515625 101.21929687 -93.1953125 100.52734375 C-91.95394531 99.58568359 -91.95394531 99.58568359 -90.6875 98.625 C-90.00429687 98.04878906 -89.32109375 97.47257812 -88.6171875 96.87890625 C-86.6875 95.625 -86.6875 95.625 -82.6875 95.625 C-80.5625 97.5625 -80.5625 97.5625 -79.296875 98.92578125 C-73.82577844 104.70230311 -68.38388493 110.15116199 -60.6875 112.625 C-59.635625 113.03685547 -59.635625 113.03685547 -58.5625 113.45703125 C-47.38892406 117.4817239 -34.74883126 116.70193707 -23.6875 112.625 C-18.5871538 110.18788876 -14.85436025 107.37529037 -11.6875 102.625 C-10.945 101.59375 -10.2025 100.5625 -9.4375 99.5 C-6.83704528 94.73422641 -6.84690401 89.89918195 -7.6875 84.625 C-11.81671188 72.80822316 -22.57368836 65.96298863 -32.6875 59.625 C-32.63513184 60.18896484 -32.58276367 60.75292969 -32.52880859 61.33398438 C-31.22854214 77.411203 -31.22854214 77.411203 -34.59765625 82.5234375 C-37.19067108 84.55135945 -39.78167867 86.08495522 -42.6875 87.625 C-44.27572332 88.82689873 -45.85940179 90.03483749 -47.4375 91.25 C-51.22526396 93.66519444 -51.22526396 93.66519444 -54.5625 93.375 C-56.109375 92.50875 -56.109375 92.50875 -57.6875 91.625 C-58.99267578 90.95597656 -58.99267578 90.95597656 -60.32421875 90.2734375 C-65.17047553 87.75001942 -69.48398819 85.12792651 -73.6875 81.625 C-75.43720641 80.63880184 -77.18694334 79.65265687 -78.9375 78.66796875 C-90.2963493 71.8982974 -98.2382363 59.17885703 -102.0625 46.75 C-104.52135926 34.53175089 -102.96848014 21.63890533 -96.5625 10.9375 C-87.30808002 -2.45351104 -74.72414442 -11.07031268 -58.8671875 -14.74609375 C-37.26824668 -18.43691908 -17.49802195 -13.21528931 0 0 Z " fill="#0EAFE7" transform="translate(123.6875,45.375)"/>
<path d="M0 0 C0.99 0 1.98 0 3 0 C3 0.66 3 1.32 3 2 C3.82242188 2.226875 4.64484375 2.45375 5.4921875 2.6875 C9.77691401 4.29069388 13.31549842 6.49534635 17.125 9 C17.86693604 9.48549316 18.60887207 9.97098633 19.37329102 10.47119141 C37.73847959 22.68559683 37.73847959 22.68559683 40 30 C40.66 30 41.32 30 42 30 C50.27691373 39.82531596 51.94056882 51.59010697 51 64 C50.58190453 66.88531816 49.93282901 69.20151296 49 72 C48.72542969 72.94166016 48.72542969 72.94166016 48.4453125 73.90234375 C44.17125592 87.22579172 33.91874098 96.51754997 22 103 C21.26007813 103.41636719 20.52015625 103.83273438 19.7578125 104.26171875 C16.05296128 106.25395006 13.32421355 107.54052669 9 107 C9 107.66 9 108.32 9 109 C-3.57098883 113.19032961 -20.76715527 111.25506228 -32.65625 105.70703125 C-33.7596875 105.14371094 -34.863125 104.58039063 -36 104 C-37.53140625 103.26330078 -37.53140625 103.26330078 -39.09375 102.51171875 C-50.44054459 96.72921766 -60.12520621 88.04656399 -69 79 C-67.49483965 75.2201872 -65.31698386 73.39542229 -62.125 70.9375 C-61.26132812 70.26589844 -60.39765625 69.59429687 -59.5078125 68.90234375 C-58.26644531 67.96068359 -58.26644531 67.96068359 -57 67 C-56.31679688 66.42378906 -55.63359375 65.84757812 -54.9296875 65.25390625 C-53 64 -53 64 -49 64 C-46.875 65.9375 -46.875 65.9375 -45.609375 67.30078125 C-40.13827844 73.07730311 -34.69638493 78.52616199 -27 81 C-25.948125 81.41185547 -25.948125 81.41185547 -24.875 81.83203125 C-13.70142406 85.8567239 -1.06133126 85.07693707 10 81 C15.1003462 78.56288876 18.83313975 75.75029037 22 71 C22.7425 69.96875 23.485 68.9375 24.25 67.875 C26.85045472 63.10922641 26.84059599 58.27418195 26 53 C22.4230124 42.76355163 13.68908022 36.13298869 4.90625 30.4453125 C3.96265625 29.72988281 3.96265625 29.72988281 3 29 C3 28.34 3 27.68 3 27 C2.26523438 26.89429687 1.53046875 26.78859375 0.7734375 26.6796875 C-2.21160889 25.94814092 -3.90264359 24.91902035 -6.375 23.125 C-10.14356532 20.49899804 -13.717971 18.639926 -18 17 C-17.6177619 14.50031088 -17.26118835 13.25675108 -15.43359375 11.46020508 C-14.77488281 10.98478271 -14.11617187 10.50936035 -13.4375 10.01953125 C-12.72335938 9.49552734 -12.00921875 8.97152344 -11.2734375 8.43164062 C-10.52320313 7.89732422 -9.77296875 7.36300781 -9 6.8125 C-7.52060126 5.73599594 -6.04142287 4.65918897 -4.5625 3.58203125 C-3.90378906 3.10999268 -3.24507813 2.6379541 -2.56640625 2.15161133 C-1.03922095 1.08950851 -1.03922095 1.08950851 0 0 Z " fill="#0ABFEF" transform="translate(90,77)"/>
<path d="M0 0 C0.33 0 0.66 0 1 0 C1.08636719 0.6290625 1.17273437 1.258125 1.26171875 1.90625 C2.31187391 8.30352546 4.08504939 12.84600918 8 18 C8.5053125 18.66902344 9.010625 19.33804688 9.53125 20.02734375 C14.30606766 25.89451356 20.21678782 30.60839391 27 34 C27 27.07 27 20.14 27 13 C27.66 13.99 28.32 14.98 29 16 C30.90807143 17.04947449 30.90807143 17.04947449 33.125 17.875 C38.8668494 20.28287233 43.83722086 23.55814724 49 27 C48.34 27 47.68 27 47 27 C47.05236816 27.56396484 47.10473633 28.12792969 47.15869141 28.70898438 C48.45895786 44.786203 48.45895786 44.786203 45.08984375 49.8984375 C42.49682892 51.92635945 39.90582133 53.45995522 37 55 C35.41177668 56.20189873 33.82809821 57.40983749 32.25 58.625 C28.46223604 61.04019444 28.46223604 61.04019444 25.125 60.75 C23.578125 59.88375 23.578125 59.88375 22 59 C20.69482422 58.33097656 20.69482422 58.33097656 19.36328125 57.6484375 C14.51702447 55.12501942 10.20351181 52.50292651 6 49 C4.25338337 48.01554335 2.50669141 47.03121336 0.7578125 46.05078125 C-5.26626914 42.44971912 -9.0313295 37.67153975 -13 32 C-6.42335766 33.3649635 -6.42335766 33.3649635 -4.375 36.4375 C-3.694375 37.7059375 -3.694375 37.7059375 -3 39 C-1.36504293 40.05104383 0.29883624 41.05988318 2 42 C2.33 42.66 2.66 43.32 3 44 C4.155 44.474375 5.31 44.94875 6.5 45.4375 C7.655 45.953125 8.81 46.46875 10 47 C10.33 47.99 10.66 48.98 11 50 C12.485 50.495 12.485 50.495 14 51 C14 51.66 14 52.32 14 53 C18.14772083 54.06643962 18.14772083 54.06643962 22.1875 53.0625 C25.04901939 49.80628828 24.42810521 46.48769722 24.25 42.3125 C24.23195312 41.51521484 24.21390625 40.71792969 24.1953125 39.89648438 C24.14822247 37.93047551 24.07647899 35.96508506 24 34 C23.071875 33.814375 23.071875 33.814375 22.125 33.625 C20 33 20 33 18 31 C15.93125966 30.3574765 15.93125966 30.3574765 14 30 C14 29.01 14 28.02 14 27 C13.4225 26.7525 12.845 26.505 12.25 26.25 C9.65091342 24.80606301 7.92163162 23.26478013 6 21 C6 20.01 6 19.02 6 18 C4.68 17.67 3.36 17.34 2 17 C-0.01167675 11.21642935 -0.22084624 6.09781001 0 0 Z " fill="#1597EF" transform="translate(44,78)"/>
<path d="M0 0 C0.99 0 1.98 0 3 0 C3 0.66 3 1.32 3 2 C3.82242188 2.226875 4.64484375 2.45375 5.4921875 2.6875 C9.77691401 4.29069388 13.31549842 6.49534635 17.125 9 C18.23790405 9.72823975 18.23790405 9.72823975 19.37329102 10.47119141 C37.73847959 22.68559683 37.73847959 22.68559683 40 30 C40.66 30 41.32 30 42 30 C42.66 31.65 43.32 33.3 44 35 C40.51127585 33.83709195 39.90023136 32.86032391 37.8125 29.9375 C37.28269531 29.20402344 36.75289062 28.47054687 36.20703125 27.71484375 C35.80871094 27.14894531 35.41039062 26.58304688 35 26 C34.01 26.33 33.02 26.66 32 27 C32.33 25.68 32.66 24.36 33 23 C31.35 23 29.7 23 28 23 C28 22.01 28 21.02 28 20 C26.35 19.67 24.7 19.34 23 19 C22.67 19.66 22.34 20.32 22 21 C21.67 19.35 21.34 17.7 21 16 C18.03 16.495 18.03 16.495 15 17 C15 15.68 15 14.36 15 13 C13.5833253 11.2488427 13.5833253 11.2488427 12 10 C10.02 10.99 10.02 10.99 8 12 C7.608125 10.865625 7.21625 9.73125 6.8125 8.5625 C5.41389118 4.79660949 5.41389118 4.79660949 2.3125 4.0625 C1.549375 4.041875 0.78625 4.02125 0 4 C-0.39832031 4.49371094 -0.79664062 4.98742187 -1.20703125 5.49609375 C-1.73683594 6.13675781 -2.26664063 6.77742188 -2.8125 7.4375 C-3.59560547 8.39462891 -3.59560547 8.39462891 -4.39453125 9.37109375 C-6 11 -6 11 -9 12 C-9.33 13.98 -9.66 15.96 -10 18 C-8.7625 18.12375 -7.525 18.2475 -6.25 18.375 C-3.1237803 18.75746305 -0.71120763 19.30549523 2 21 C1.67 22.32 1.34 23.64 1 25 C3.64 25.66 6.28 26.32 9 27 C9 27.66 9 28.32 9 29 C9.969375 29.2475 10.93875 29.495 11.9375 29.75 C12.948125 30.1625 13.95875 30.575 15 31 C15.33333333 32.33333333 15.66666667 33.66666667 16 35 C18.99615946 36.3045656 18.99615946 36.3045656 22 37 C22.0825 37.721875 22.165 38.44375 22.25 39.1875 C22.80800692 42.09563264 22.80800692 42.09563264 24.875 44.1875 C29.59167106 50.43015287 30.41272475 57.24337688 29.71484375 64.87109375 C28.78661526 67.63549008 27.34649096 68.35791373 25 70 C24.505 71.485 24.505 71.485 24 73 C23.34 73 22.68 73 22 73 C23.82140468 68.31638796 23.82140468 68.31638796 25.04296875 66.15234375 C27.19488198 61.31273481 26.86363532 55.50655087 25.16015625 50.5625 C20.57293726 41.66607529 13.16480477 35.79347297 4.90625 30.4453125 C4.2771875 29.96835938 3.648125 29.49140625 3 29 C3 28.34 3 27.68 3 27 C2.26523438 26.89429687 1.53046875 26.78859375 0.7734375 26.6796875 C-2.21160889 25.94814092 -3.90264359 24.91902035 -6.375 23.125 C-10.14356532 20.49899804 -13.717971 18.639926 -18 17 C-17.6177619 14.50031088 -17.26118835 13.25675108 -15.43359375 11.46020508 C-14.77488281 10.98478271 -14.11617188 10.50936035 -13.4375 10.01953125 C-12.72335938 9.49552734 -12.00921875 8.97152344 -11.2734375 8.43164062 C-10.52320312 7.89732422 -9.77296875 7.36300781 -9 6.8125 C-7.52060126 5.73599594 -6.04142287 4.65918897 -4.5625 3.58203125 C-3.90378906 3.10999268 -3.24507812 2.6379541 -2.56640625 2.15161133 C-1.03922095 1.08950851 -1.03922095 1.08950851 0 0 Z " fill="#22D3DD" transform="translate(90,77)"/>
<path d="M0 0 C15.70855189 2.39621978 27.52384778 12.64977073 38.8359375 23.08203125 C41.04871601 25.13124231 41.04871601 25.13124231 44 27 C43.875 28.75 43.875 28.75 43 31 C40.5625 32.8125 40.5625 32.8125 38.94921875 33.78125 C35.60618417 35.87148405 32.5118319 38.33140425 29.3671875 40.70703125 C27 42 27 42 25.04296875 41.9921875 C22.0737041 40.55013545 19.89891576 38.50515931 17.4375 36.3125 C5.46734699 25.94392199 -6.28259191 21.65235932 -22.07421875 21.69921875 C-27.77659201 22.136117 -32.74868928 23.80950912 -38 26 C-38 25.01 -38 24.02 -38 23 C-34.66666667 21.33333333 -31.33333333 19.66666667 -28 18 C-28 18.66 -28 19.32 -28 20 C-27.030625 19.67 -26.06125 19.34 -25.0625 19 C-17.77189635 16.94216832 -11.16105944 17.91678271 -4 20 C-3.67 19.34 -3.34 18.68 -3 18 C-2.649375 18.433125 -2.29875 18.86625 -1.9375 19.3125 C0.08497522 21.2481383 0.08497522 21.2481383 3.5 22.5 C6.63980557 23.84563096 7.76403222 24.65755756 10 27 C12.10332891 27.71447643 12.10332891 27.71447643 14 28 C14 28.66 14 29.32 14 30 C16.64 30.33 19.28 30.66 22 31 C22 31.99 22 32.98 22 34 C23.45736087 34.19491452 24.91594593 34.38069358 26.375 34.5625 C27.18710938 34.66691406 27.99921875 34.77132812 28.8359375 34.87890625 C31.04899186 35.18237328 31.04899186 35.18237328 33 34 C33 33.21625 33 32.4325 33 31.625 C33 29.08333333 33 26.54166667 33 24 C33.99 23.505 33.99 23.505 35 23 C33.03617993 21.49440461 31.21736634 20.10868317 29 19 C28.195625 18.175 27.39125 17.35 26.5625 16.5 C24.18879763 13.82063363 24.18879763 13.82063363 21 13 C21 12.34 21 11.68 21 11 C20.01 11.33 19.02 11.66 18 12 C17.236875 11.21625 16.47375 10.4325 15.6875 9.625 C12.11964461 6.14011799 9.63813601 4.75238837 4.8125 3.875 C3.91144531 3.70742188 3.01039062 3.53984375 2.08203125 3.3671875 C1.05142578 3.18542969 1.05142578 3.18542969 0 3 C0 2.01 0 1.02 0 0 Z " fill="#1ADBCF" transform="translate(97,33)"/>
<path d="M0 0 C2.125 1.9375 2.125 1.9375 3.390625 3.30078125 C8.86172156 9.07730311 14.30361507 14.52616199 22 17 C22.70125 17.27457031 23.4025 17.54914063 24.125 17.83203125 C35.68777544 21.99691253 47.48355999 20.48928245 59 17 C60.33134241 16.65880169 61.66395159 16.32227866 63 16 C63 16.66 63 17.32 63 18 C55.42671754 21.33224428 48.9237677 23.32866964 40.625 23.6875 C39.81289062 23.73455078 39.00078125 23.78160156 38.1640625 23.83007812 C32.96772688 24.08406568 28.14305104 23.78623654 23 23 C23 22.01 23 21.02 23 20 C22.154375 19.7525 21.30875 19.505 20.4375 19.25 C16.60923912 17.85790513 13.49491995 16.08350997 10 14 C9.34 13.67 8.68 13.34 8 13 C8 12.34 8 11.68 8 11 C7.401875 10.7525 6.80375 10.505 6.1875 10.25 C3.71352479 8.83629988 2.56629745 7.34944617 1 5 C-2.86393733 5.52215369 -4.34755445 6.24553732 -7 9 C-8.19982133 9.64118892 -9.40920924 10.2646335 -10.625 10.875 C-14.19529073 12.62885139 -14.19529073 12.62885139 -14.9375 15.75 C-14.958125 16.4925 -14.97875 17.235 -15 18 C-13.2984375 18.433125 -13.2984375 18.433125 -11.5625 18.875 C-10.386875 19.24625 -9.21125 19.6175 -8 20 C-7.67 20.66 -7.34 21.32 -7 22 C-4.98330173 23.13350534 -4.98330173 23.13350534 -3 24 C-3 24.99 -3 25.98 -3 27 C-0.03 28.65 2.94 30.3 6 32 C6 32.66 6 33.32 6 34 C6.66 34 7.32 34 8 34 C8 34.66 8 35.32 8 36 C9.65 36 11.3 36 13 36 C13 36.66 13 37.32 13 38 C13.99 38 14.98 38 16 38 C16.33 38.99 16.66 39.98 17 41 C2.15626231 36.43101447 -9.3234562 25.85183034 -20 15 C-18.49483965 11.2201872 -16.31698386 9.39542229 -13.125 6.9375 C-12.26132812 6.26589844 -11.39765625 5.59429687 -10.5078125 4.90234375 C-9.68023437 4.27457031 -8.85265625 3.64679688 -8 3 C-6.97519531 2.13568359 -6.97519531 2.13568359 -5.9296875 1.25390625 C-4 0 -4 0 0 0 Z " fill="#0C63B4" transform="translate(41,141)"/>
<path d="M0 0 C0.33 0 0.66 0 1 0 C1.08636719 0.6290625 1.17273437 1.258125 1.26171875 1.90625 C2.31187391 8.30352546 4.08504939 12.84600918 8 18 C8.5053125 18.66902344 9.010625 19.33804688 9.53125 20.02734375 C14.30606766 25.89451356 20.21678782 30.60839391 27 34 C27 42.91 27 51.82 27 61 C16.52140493 56.50917354 7.18463982 50.72295262 -2 44 C-3.36125 43.0409375 -3.36125 43.0409375 -4.75 42.0625 C-8.00153755 39.08192391 -10.46221474 35.59301556 -13 32 C-6.42335766 33.3649635 -6.42335766 33.3649635 -4.375 36.4375 C-3.694375 37.7059375 -3.694375 37.7059375 -3 39 C-1.36504293 40.05104383 0.29883624 41.05988318 2 42 C2.33 42.66 2.66 43.32 3 44 C4.155 44.474375 5.31 44.94875 6.5 45.4375 C7.655 45.953125 8.81 46.46875 10 47 C10.33 47.99 10.66 48.98 11 50 C12.485 50.495 12.485 50.495 14 51 C14 51.66 14 52.32 14 53 C18.14772083 54.06643962 18.14772083 54.06643962 22.1875 53.0625 C25.04901939 49.80628828 24.42810521 46.48769722 24.25 42.3125 C24.23195312 41.51521484 24.21390625 40.71792969 24.1953125 39.89648438 C24.14822247 37.93047551 24.07647899 35.96508506 24 34 C23.071875 33.814375 23.071875 33.814375 22.125 33.625 C20 33 20 33 18 31 C15.93125966 30.3574765 15.93125966 30.3574765 14 30 C14 29.01 14 28.02 14 27 C13.4225 26.7525 12.845 26.505 12.25 26.25 C9.65091342 24.80606301 7.92163162 23.26478013 6 21 C6 20.01 6 19.02 6 18 C4.68 17.67 3.36 17.34 2 17 C-0.01167675 11.21642935 -0.22084624 6.09781001 0 0 Z " fill="#0C4CD3" transform="translate(44,78)"/>
<path d="M0 0 C0.33 0.66 0.66 1.32 1 2 C1.969375 1.67 2.93875 1.34 3.9375 1 C11.22810365 -1.05783168 17.83894056 -0.08321729 25 2 C25.33 1.34 25.66 0.68 26 0 C26.350625 0.433125 26.70125 0.86625 27.0625 1.3125 C29.08497522 3.2481383 29.08497522 3.2481383 32.5 4.5 C35.63980557 5.84563096 36.76403222 6.65755756 39 9 C41.10332891 9.71447643 41.10332891 9.71447643 43 10 C43 10.66 43 11.32 43 12 C43.99 12.33 44.98 12.66 46 13 C46 13.66 46 14.32 46 15 C46.99 15 47.98 15 49 15 C49.495 17.475 49.495 17.475 50 20 C50.66 20 51.32 20 52 20 C51.67 20.66 51.34 21.32 51 22 C50.33355469 21.41992188 49.66710937 20.83984375 48.98046875 20.2421875 C34.77135778 8.19922072 21.79203059 2.56021258 3 4 C-1.14867915 5.01827173 -5.05977508 6.35640525 -9 8 C-9 7.01 -9 6.02 -9 5 C-8.43410156 4.72285156 -7.86820313 4.44570313 -7.28515625 4.16015625 C-6.55167969 3.79792969 -5.81820312 3.43570313 -5.0625 3.0625 C-3.96615234 2.52302734 -3.96615234 2.52302734 -2.84765625 1.97265625 C-1.03750973 1.13628173 -1.03750973 1.13628173 0 0 Z " fill="#25B3C0" transform="translate(68,51)"/>
<path d="M0 0 C0 0.33 0 0.66 0 1 C-6.39839119 1.12545865 -6.39839119 1.12545865 -9.37890625 0.50390625 C-12.22429521 -0.04312084 -14.85469834 -0.13282514 -17.75 -0.125 C-18.71421875 -0.12757812 -19.6784375 -0.13015625 -20.671875 -0.1328125 C-22.96050141 -0.26139398 -22.96050141 -0.26139398 -24 1 C-25.43434586 1.15710888 -26.87297244 1.27604721 -28.3125 1.375 C-32.12384396 1.74345005 -34.08701269 2.42312661 -37 5 C-37.99 5 -38.98 5 -40 5 C-40.66 6.32 -41.32 7.64 -42 9 C-42.66 8.34 -43.32 7.68 -44 7 C-44.763125 7.33 -45.52625 7.66 -46.3125 8 C-49 9 -49 9 -52 9 C-52.226875 9.804375 -52.45375 10.60875 -52.6875 11.4375 C-53.3371875 12.7059375 -53.3371875 12.7059375 -54 14 C-56.375 14.6875 -56.375 14.6875 -59 15 C-60.34854813 15.63532682 -61.68505333 16.29776252 -63 17 C-55.57219148 6.51368208 -42.68858128 0.41851727 -30.21044922 -1.72753906 C-20.23219309 -2.95746328 -9.58444241 -3.25558506 0 0 Z " fill="#1CB3E0" transform="translate(97,32)"/>
<path d="M0 0 C0.33 0 0.66 0 1 0 C1.08636719 0.6290625 1.17273437 1.258125 1.26171875 1.90625 C2.31187391 8.30352546 4.08504939 12.84600918 8 18 C8.5053125 18.66902344 9.010625 19.33804688 9.53125 20.02734375 C14.30606766 25.89451356 20.21678782 30.60839391 27 34 C27 42.91 27 51.82 27 61 C26.67 61 26.34 61 26 61 C25.97494385 60.39526855 25.9498877 59.79053711 25.92407227 59.16748047 C25.80736994 56.4031438 25.68498266 53.63908634 25.5625 50.875 C25.52318359 49.92367187 25.48386719 48.97234375 25.44335938 47.9921875 C25.22946977 43.25371013 24.93438179 38.66405699 24 34 C23.071875 33.814375 23.071875 33.814375 22.125 33.625 C20 33 20 33 18 31 C15.93125966 30.3574765 15.93125966 30.3574765 14 30 C14 29.01 14 28.02 14 27 C13.4225 26.7525 12.845 26.505 12.25 26.25 C9.65091342 24.80606301 7.92163162 23.26478013 6 21 C6 20.01 6 19.02 6 18 C4.68 17.67 3.36 17.34 2 17 C-0.01167675 11.21642935 -0.22084624 6.09781001 0 0 Z " fill="#075AE5" transform="translate(44,78)"/>
<path d="M0 0 C0.99 0.33 1.98 0.66 3 1 C2.67 2.65 2.34 4.3 2 6 C3.134375 6.28875 4.26875 6.5775 5.4375 6.875 C6.613125 7.24625 7.78875 7.6175 9 8 C9.33 8.66 9.66 9.32 10 10 C12.01669827 11.13350534 12.01669827 11.13350534 14 12 C14 12.99 14 13.98 14 15 C16.97 16.65 19.94 18.3 23 20 C23 20.66 23 21.32 23 22 C23.66 22 24.32 22 25 22 C25 22.66 25 23.32 25 24 C26.65 24 28.3 24 30 24 C30 24.66 30 25.32 30 26 C30.99 26 31.98 26 33 26 C33.495 27.485 33.495 27.485 34 29 C21.21453308 25.06456173 8.85963648 16.06643082 0 6 C-0.75 3.375 -0.75 3.375 -1 1 C-0.67 0.67 -0.34 0.34 0 0 Z " fill="#137BD3" transform="translate(24,153)"/>
<path d="M0 0 C11.99047897 1.82905611 21.8653839 8.2777643 31 16 C31.62132812 16.51175781 32.24265625 17.02351563 32.8828125 17.55078125 C34.26345048 18.69061028 35.63326746 19.843534 37 21 C36.01 21.33 35.02 21.66 34 22 C33.01 21.34 32.02 20.68 31 20 C30.34 19.67 29.68 19.34 29 19 C28.195625 18.175 27.39125 17.35 26.5625 16.5 C24.18879763 13.82063363 24.18879763 13.82063363 21 13 C21 12.34 21 11.68 21 11 C20.01 11.33 19.02 11.66 18 12 C16.8553125 10.824375 16.8553125 10.824375 15.6875 9.625 C12.11964461 6.14011799 9.63813601 4.75238837 4.8125 3.875 C3.91144531 3.70742188 3.01039062 3.53984375 2.08203125 3.3671875 C1.39496094 3.24601562 0.70789063 3.12484375 0 3 C0 2.01 0 1.02 0 0 Z " fill="#2AD2D0" transform="translate(97,33)"/>
<path d="M0 0 C5.14009096 4.53624073 6.75456539 11.14053895 7.32421875 17.77734375 C7.41147417 24.49601086 7.08958477 30.60064663 5 37 C4.01 37 3.02 37 2 37 C2.33 36.030625 2.66 35.06125 3 34.0625 C5.26259661 25.89110793 3.66204195 18.56000485 1.75390625 10.4296875 C0.99219035 6.96447218 0.46083779 3.51668447 0 0 Z " fill="#24BAD3" transform="translate(134,112)"/>
<path d="M0 0 C0.33 0.66 0.66 1.32 1 2 C1.969375 1.67 2.93875 1.34 3.9375 1 C11.22810365 -1.05783168 17.83894056 -0.08321729 25 2 C25.33 1.34 25.66 0.68 26 0 C26.66 1.32 27.32 2.64 28 4 C27.30551758 3.97905273 26.61103516 3.95810547 25.89550781 3.93652344 C7.96084928 3.04724953 7.96084928 3.04724953 -9 8 C-9 7.01 -9 6.02 -9 5 C-8.43410156 4.72285156 -7.86820313 4.44570313 -7.28515625 4.16015625 C-6.55167969 3.79792969 -5.81820312 3.43570313 -5.0625 3.0625 C-3.96615234 2.52302734 -3.96615234 2.52302734 -2.84765625 1.97265625 C-1.03750973 1.13628173 -1.03750973 1.13628173 0 0 Z " fill="#28B8D0" transform="translate(68,51)"/>
<path d="M0 0 C2.82970285 0.30318245 3.96493845 0.9670634 6.0625 2.9375 C10.2885231 9.61734296 11.42902318 16.0652379 10.71484375 23.87109375 C9.78661526 26.63549008 8.34649096 27.35791373 6 29 C5.67 29.99 5.34 30.98 5 32 C4.34 32 3.68 32 3 32 C4.82140468 27.31638796 4.82140468 27.31638796 6.04296875 25.15234375 C7.91361549 20.94529742 7.61213478 16.49100865 7 12 C5.68518519 8.73007024 3.99239893 5.89803481 2 3 C1.34 2.01 0.68 1.02 0 0 Z " fill="#21BDDC" transform="translate(109,118)"/>
<path d="M0 0 C0.33 0 0.66 0 1 0 C1.33 5.61 1.66 11.22 2 17 C2.66 17 3.32 17 4 17 C4 18.65 4 20.3 4 22 C4.66 22 5.32 22 6 22 C6.66 23.98 7.32 25.96 8 28 C8.66 27.01 9.32 26.02 10 25 C11 28 11 28 10 31 C10.7763932 34.0745356 10.7763932 34.0745356 13 36 C11.25 35.875 11.25 35.875 9 35 C2.35728604 26.90419237 -0.15857505 16.96753065 -0.0625 6.6875 C-0.05347656 5.43324219 -0.04445313 4.17898437 -0.03515625 2.88671875 C-0.01775391 1.45779297 -0.01775391 1.45779297 0 0 Z " fill="#1481E1" transform="translate(21,74)"/>
<path d="M0 0 C0.33 0 0.66 0 1 0 C1 6.6 1 13.2 1 20 C-2.49397942 19.12650515 -4.68637013 18.19458184 -7.75 16.4375 C-8.54921875 15.98246094 -9.3484375 15.52742187 -10.171875 15.05859375 C-10.77515625 14.70925781 -11.3784375 14.35992187 -12 14 C-9.10765685 13.17361624 -7.11257569 13 -4 13 C-3.01 12.34 -2.02 11.68 -1 11 C-0.41651248 8.3443272 -0.41651248 8.3443272 -0.3125 5.375 C-0.24675781 4.37210937 -0.18101563 3.36921875 -0.11328125 2.3359375 C-0.07589844 1.56507812 -0.03851563 0.79421875 0 0 Z " fill="#0639DA" transform="translate(69,118)"/>
<path d="M0 0 C0 0.66 0 1.32 0 2 C-7.57328246 5.33224428 -14.0762323 7.32866964 -22.375 7.6875 C-23.18710938 7.73455078 -23.99921875 7.78160156 -24.8359375 7.83007812 C-30.03227312 8.08406568 -34.85694896 7.78623654 -40 7 C-40 6.01 -40 5.02 -40 4 C-38.29070312 4.23589844 -38.29070312 4.23589844 -36.546875 4.4765625 C-25.18887629 5.88007949 -14.64688351 6.32344175 -4.1875 1.09375 C-2 0 -2 0 0 0 Z " fill="#1A8CD2" transform="translate(104,157)"/>
<path d="M0 0 C1.3602832 -0.01160156 1.3602832 -0.01160156 2.74804688 -0.0234375 C8.0343935 -0.00810364 12.43665937 0.52131435 17.4375 2.25 C17.4375 2.58 17.4375 2.91 17.4375 3.25 C11.03910881 3.37545865 11.03910881 3.37545865 8.05859375 2.75390625 C5.21320479 2.20687916 2.58280166 2.11717486 -0.3125 2.125 C-1.27671875 2.12242188 -2.2409375 2.11984375 -3.234375 2.1171875 C-5.52300141 1.98860602 -5.52300141 1.98860602 -6.5625 3.25 C-9.08846259 3.48653523 -11.59357207 3.67173692 -14.125 3.8125 C-14.83591797 3.85568359 -15.54683594 3.89886719 -16.27929688 3.94335938 C-18.04011912 4.04971777 -19.8012832 4.15038846 -21.5625 4.25 C-14.9676055 -0.14659633 -7.66960489 -0.06569255 0 0 Z " fill="#33B8D3" transform="translate(79.5625,29.75)"/>
<path d="M0 0 C0.66 0.33 1.32 0.66 2 1 C1.94778173 4.20962297 1.85263231 7.4166246 1.75 10.625 C1.72873047 11.98044922 1.72873047 11.98044922 1.70703125 13.36328125 C1.50075326 19.01529821 0.88431736 22.59319039 -3 27 C-5.03515625 28.49609375 -5.03515625 28.49609375 -7.0625 29.4375 C-7.73410156 29.76621094 -8.40570313 30.09492188 -9.09765625 30.43359375 C-11 31 -11 31 -14 30 C-13.07316406 29.51015625 -12.14632812 29.0203125 -11.19140625 28.515625 C-4.20487446 24.37913656 -4.20487446 24.37913656 -0.28613281 17.56347656 C0.52405157 11.72632135 0.40065284 5.86883791 0 0 Z " fill="#083581" transform="translate(91,105)"/>
<path d="M0 0 C1.93816735 0.1141866 3.87555099 0.24173423 5.8125 0.375 C6.89144531 0.44460937 7.97039062 0.51421875 9.08203125 0.5859375 C12 1 12 1 15 3 C17.71378472 3.27625094 17.71378472 3.27625094 20.76171875 3.1953125 C21.87998047 3.18886719 22.99824219 3.18242187 24.15039062 3.17578125 C25.31763672 3.15902344 26.48488281 3.14226562 27.6875 3.125 C28.86634766 3.11597656 30.04519531 3.10695312 31.25976562 3.09765625 C34.17338026 3.07406423 37.08658892 3.0411454 40 3 C35.22380859 6.18412761 30.11703162 5.36878647 24.5 5.375 C23.365625 5.39949219 22.23125 5.42398438 21.0625 5.44921875 C13.28100434 5.47598995 7.10694013 4.17081631 0 1 C0 0.67 0 0.34 0 0 Z " fill="#116EBC" transform="translate(59,182)"/>
<path d="M0 0 C0.33 1.32 0.66 2.64 1 4 C0.01 4.33 -0.98 4.66 -2 5 C-1.67 5.99 -1.34 6.98 -1 8 C-1.6496875 8.48210937 -2.299375 8.96421875 -2.96875 9.4609375 C-3.8040625 10.09257812 -4.639375 10.72421875 -5.5 11.375 C-6.75296875 12.31472656 -6.75296875 12.31472656 -8.03125 13.2734375 C-8.6809375 13.84320313 -9.330625 14.41296875 -10 15 C-10 15.66 -10 16.32 -10 17 C-10.66 17.33 -11.32 17.66 -12 18 C-12.33 18.99 -12.66 19.98 -13 21 C-13.99 21 -14.98 21 -16 21 C-16 20.34 -16 19.68 -16 19 C-16.66 18.67 -17.32 18.34 -18 18 C-17.43152344 17.5875 -16.86304687 17.175 -16.27734375 16.75 C-9.81015572 11.91310478 -4.48878201 6.73317301 0 0 Z " fill="#053D7A" transform="translate(134,159)"/>
<path d="M0 0 C0.55816406 0.24492188 1.11632812 0.48984375 1.69140625 0.7421875 C0.70140625 2.3921875 -0.28859375 4.0421875 -1.30859375 5.7421875 C-2.62859375 5.4121875 -3.94859375 5.0821875 -5.30859375 4.7421875 C-5.30859375 5.4021875 -5.30859375 6.0621875 -5.30859375 6.7421875 C-6.95859375 7.0721875 -8.60859375 7.4021875 -10.30859375 7.7421875 C-10.30859375 8.4021875 -10.30859375 9.0621875 -10.30859375 9.7421875 C-10.96859375 9.7421875 -11.62859375 9.7421875 -12.30859375 9.7421875 C-12.96859375 11.0621875 -13.62859375 12.3821875 -14.30859375 13.7421875 C-14.30859375 13.0821875 -14.30859375 12.4221875 -14.30859375 11.7421875 C-15.62859375 11.4121875 -16.94859375 11.0821875 -18.30859375 10.7421875 C-17.97859375 10.0821875 -17.64859375 9.4221875 -17.30859375 8.7421875 C-16.56738281 8.62101562 -15.82617188 8.49984375 -15.0625 8.375 C-10.66448565 7.36439245 -8.0174422 4.30415114 -4.7109375 1.359375 C-2.30859375 -0.2578125 -2.30859375 -0.2578125 0 0 Z " fill="#04265A" transform="translate(138.30859375,65.2578125)"/>
<path d="M0 0 C0 0.66 0 1.32 0 2 C1.4540625 2.433125 1.4540625 2.433125 2.9375 2.875 C6 4 6 4 7 6 C4.42316387 5.48463277 1.98537534 4.99488137 -0.5 4.125 C-1.325 4.08375 -2.15 4.0425 -3 4 C-4.68762851 5.6454378 -6.3540349 7.31288577 -8 9 C-10.8125 9.3125 -10.8125 9.3125 -13 9 C-4.25 0 -4.25 0 0 0 Z " fill="#2ABDCC" transform="translate(93,77)"/>
<path d="M0 0 C2 3 2 3 2 5 C2.66 5.33 3.32 5.66 4 6 C3.84660156 6.54140625 3.69320312 7.0828125 3.53515625 7.640625 C2.92128392 10.34704023 2.66791243 12.9850509 2.4375 15.75 C2.35371094 16.73484375 2.26992187 17.7196875 2.18359375 18.734375 C2.12300781 19.48203125 2.06242187 20.2296875 2 21 C1.34 21 0.68 21 0 21 C0 14.07 0 7.14 0 0 Z " fill="#1A77DC" transform="translate(71,91)"/>
<path d="M0 0 C-10.34150539 4.06878901 -21.09578091 3.29610399 -32 3 C-32.33 2.34 -32.66 1.68 -33 1 C-32.09906616 1.00785522 -32.09906616 1.00785522 -31.17993164 1.01586914 C-28.47413162 1.03658014 -25.76834823 1.04964125 -23.0625 1.0625 C-22.11697266 1.07087891 -21.17144531 1.07925781 -20.19726562 1.08789062 C-19.29814453 1.09111328 -18.39902344 1.09433594 -17.47265625 1.09765625 C-16.64000244 1.10289307 -15.80734863 1.10812988 -14.94946289 1.11352539 C-12.99483202 1.21643292 -12.99483202 1.21643292 -12 0 C-4.23003802 -1.27376426 -4.23003802 -1.27376426 0 0 Z " fill="#169CE3" transform="translate(106,183)"/>
<path d="M0 0 C0.66 1.32 1.32 2.64 2 4 C-2.47053882 10.5258255 -6.71465734 16.15504836 -13 21 C-13 19.68 -13 18.36 -13 17 C-12.01 17 -11.02 17 -10 17 C-10 16.34 -10 15.68 -10 15 C-9.34 15 -8.68 15 -8 15 C-8 14.34 -8 13.68 -8 13 C-7.34 13 -6.68 13 -6 13 C-6 12.01 -6 11.02 -6 10 C-5.34 10 -4.68 10 -4 10 C-4 9.01 -4 8.02 -4 7 C-3.34 7 -2.68 7 -2 7 C-1.34 4.69 -0.68 2.38 0 0 Z " fill="#1EBCE4" transform="translate(135,152)"/>
<path d="M0 0 C0.66 0.33 1.32 0.66 2 1 C-0.81979775 5.66351166 -3.60417387 8.75091112 -8 12 C-8.66 12 -9.32 12 -10 12 C-8 6 -8 6 -7 4 C-5.7934375 3.7834375 -5.7934375 3.7834375 -4.5625 3.5625 C-1.65559342 3.23497283 -1.65559342 3.23497283 0 0 Z " fill="#051D64" transform="translate(112,145)"/>
<path d="M0 0 C0.33 0 0.66 0 1 0 C1 6.93 1 13.86 1 21 C-3.77737198 19.08905121 -5.62722811 17.66186662 -9 14 C-6.03 14.99 -3.06 15.98 0 17 C0 11.39 0 5.78 0 0 Z " fill="#04328E" transform="translate(70,91)"/>
<path d="M0 0 C6.56365741 1.36226852 6.56365741 1.36226852 8.625 4.375 C9.07875 5.24125 9.5325 6.1075 10 7 C12.57183314 9.27537692 12.57183314 9.27537692 15 11 C12.8125 11.3125 12.8125 11.3125 10 11 C6.1991749 7.76929867 3.14240592 3.86067013 0 0 Z " fill="#0F62D8" transform="translate(31,110)"/>
<path d="M0 0 C0.99 0.33 1.98 0.66 3 1 C2.67 2.65 2.34 4.3 2 6 C3.11375 6.2475 4.2275 6.495 5.375 6.75 C9 8 9 8 10.4375 10.125 C10.7159375 11.053125 10.7159375 11.053125 11 12 C7.11617586 11.72903553 5.26826936 11.21461548 2.1875 8.75 C-0.01303461 5.98361363 -0.80601415 4.49174524 -1 1 C-0.67 0.67 -0.34 0.34 0 0 Z " fill="#0D79E1" transform="translate(24,153)"/>
<path d="M0 0 C1.98 0.66 3.96 1.32 6 2 C5.67 2.66 5.34 3.32 5 4 C6.65 4.33 8.3 4.66 10 5 C10 6.65 10 8.3 10 10 C8.68 10 7.36 10 6 10 C6 9.34 6 8.68 6 8 C5.34 8 4.68 8 4 8 C3.67 6.35 3.34 4.7 3 3 C2.01 3 1.02 3 0 3 C0 2.01 0 1.02 0 0 Z " fill="#14DFD4" transform="translate(114,63)"/>
<path d="M0 0 C0.33 0.66 0.66 1.32 1 2 C2.95277849 2.57854852 2.95277849 2.57854852 5.25 2.9375 C9.01991956 3.7118943 11.952077 4.52356256 15 7 C15.8125 9.1875 15.8125 9.1875 16 11 C11.68494889 9.43089051 7.95649499 7.30196072 4 5 C2.67353844 4.3197633 1.34391123 3.64507739 0 3 C0 2.01 0 1.02 0 0 Z " fill="#1FCEEC" transform="translate(72,91)"/>
<path d="M0 0 C0.33 0 0.66 0 1 0 C1.08636719 0.6290625 1.17273437 1.258125 1.26171875 1.90625 C2.19314941 7.5802863 3.60170793 11.63646849 6.9765625 16.30859375 C8 18 8 18 8 21 C7.34 20.34 6.68 19.68 6 19 C5.34 18.773125 4.68 18.54625 4 18.3125 C1.48245004 16.66035784 0.99706344 15.02509657 0.3046875 12.15234375 C-0.26729917 8.11177126 -0.14737555 4.06920256 0 0 Z " fill="#1274CF" transform="translate(44,78)"/>
<path d="M0 0 C1.32 0.33 2.64 0.66 4 1 C3.20335937 1.67095703 3.20335937 1.67095703 2.390625 2.35546875 C-1.47888319 5.66714638 -4.98587305 8.85557544 -8 13 C-7.74438677 10.6568787 -7.40729228 8.32156597 -7 6 C-6.34 5.67 -5.68 5.34 -5 5 C-4.67 4.01 -4.34 3.02 -4 2 C-2.68 2 -1.36 2 0 2 C0 1.34 0 0.68 0 0 Z " fill="#1CA8E0" transform="translate(54,59)"/>
<path d="M0 0 C-3.625 3 -3.625 3 -7 3 C-7.66 4.32 -8.32 5.64 -9 7 C-10.5 5.6875 -10.5 5.6875 -12 4 C-12 3.01 -12 2.02 -12 1 C-10.37681021 0.63762737 -8.7513642 0.28534843 -7.125 -0.0625 C-6.22007813 -0.25972656 -5.31515625 -0.45695312 -4.3828125 -0.66015625 C-2 -1 -2 -1 0 0 Z " fill="#1BC0DF" transform="translate(64,34)"/>
<path d="M0 0 C4.76732008 0.51634179 7.86931226 1.82674688 11.875 4.4375 C12.84179688 5.05496094 13.80859375 5.67242187 14.8046875 6.30859375 C15.89136719 7.14583984 15.89136719 7.14583984 17 8 C17 8.66 17 9.32 17 10 C15.35 10 13.7 10 12 10 C11.67 8.68 11.34 7.36 11 6 C9.6078125 5.8453125 9.6078125 5.8453125 8.1875 5.6875 C4.89495247 4.97734269 4.03166314 4.53957893 2 2 C1.34 1.34 0.68 0.68 0 0 Z " fill="#0991E2" transform="translate(73,95)"/>
<path d="M0 0 C-3.32307692 3.93846154 -3.32307692 3.93846154 -6.75 4.25 C-7.4925 4.1675 -8.235 4.085 -9 4 C-9.33 4.99 -9.66 5.98 -10 7 C-11.65 7 -13.3 7 -15 7 C-6.16916168 -2.61002994 -6.16916168 -2.61002994 0 0 Z " fill="#042B6F" transform="translate(68,57)"/>
<path d="M0 0 C6.30596952 1.10938353 11.37529486 2.93197901 17 6 C15.1875 6.625 15.1875 6.625 13 7 C12.01 6.34 11.02 5.68 10 5 C8.28555111 4.56261304 6.55332216 4.19151312 4.8125 3.875 C3.91144531 3.70742188 3.01039062 3.53984375 2.08203125 3.3671875 C1.39496094 3.24601562 0.70789063 3.12484375 0 3 C0 2.01 0 1.02 0 0 Z " fill="#32C9D0" transform="translate(97,33)"/>
<path d="M0 0 C0 0.66 0 1.32 0 2 C-0.763125 2.45375 -1.52625 2.9075 -2.3125 3.375 C-5.04325566 5.02615458 -6.1495931 6.47671786 -8 9 C-8.99 9.33 -9.98 9.66 -11 10 C-11.73323796 12.01508358 -11.73323796 12.01508358 -12 14 C-12.66 12.68 -13.32 11.36 -14 10 C-12.56458334 8.70601853 -11.12658648 7.41489889 -9.6875 6.125 C-8.88699219 5.40570313 -8.08648437 4.68640625 -7.26171875 3.9453125 C-2.6746988 0 -2.6746988 0 0 0 Z " fill="#125DC3" transform="translate(35,144)"/>
<path d="M0 0 C-3.54039134 2.9156164 -7.1626772 5.50127818 -11 8 C-11.66 7.67 -12.32 7.34 -13 7 C-11.37660195 5.29115995 -9.70680947 3.62553283 -8 2 C-7.34 2 -6.68 2 -6 2 C-6 1.34 -6 0.68 -6 0 C-3.50907189 -1.24546405 -2.58919267 -0.7767578 0 0 Z " fill="#0B79E7" transform="translate(41,144)"/>
<path d="M0 0 C0.99 0 1.98 0 3 0 C1.69323305 3.92030085 -0.15652781 4.8220796 -3.5 7.1875 C-4.5003125 7.90292969 -5.500625 8.61835938 -6.53125 9.35546875 C-9 11 -9 11 -10 11 C-10 9.35 -10 7.7 -10 6 C-8.68 6.33 -7.36 6.66 -6 7 C-6 6.34 -6 5.68 -6 5 C-5.01 5 -4.02 5 -3 5 C-3 4.01 -3 3.02 -3 2 C-2.01 2 -1.02 2 0 2 C0 1.34 0 0.68 0 0 Z " fill="#1F97DD" transform="translate(86,125)"/>
<path d="M0 0 C0.33 0.66 0.66 1.32 1 2 C1.66 2.33 2.32 2.66 3 3 C-0.33333333 6.33333333 -3.66666667 9.66666667 -7 13 C-7 11.35 -7 9.7 -7 8 C-5.68 7.67 -4.36 7.34 -3 7 C-3 5.68 -3 4.36 -3 3 C-1.5 1.25 -1.5 1.25 0 0 Z " fill="#03266B" transform="translate(36,41)"/>
<path d="M0 0 C0.33 0.99 0.66 1.98 1 3 C0.09507813 3.33644531 0.09507813 3.33644531 -0.828125 3.6796875 C-3.66234919 5.40265113 -4.37142854 7.13809517 -5.75 10.125 C-6.17796875 11.03507812 -6.6059375 11.94515625 -7.046875 12.8828125 C-7.36140625 13.58148438 -7.6759375 14.28015625 -8 15 C-8.5859375 13.15625 -8.5859375 13.15625 -9 11 C-7.625 8.5 -7.625 8.5 -6 6 C-5.7525 4.9171875 -5.7525 4.9171875 -5.5 3.8125 C-4.70221951 0.92054573 -2.9110379 0 0 0 Z " fill="#0FBDF3" transform="translate(34,52)"/>
<path d="M0 0 C0.33 0.66 0.66 1.32 1 2 C1.66 2.28875 2.32 2.5775 3 2.875 C5 4 5 4 5.5625 5.875 C5.706875 6.57625 5.85125 7.2775 6 8 C7.48800372 10.2072358 7.48800372 10.2072358 9 12 C5.55571735 10.55218207 3.63869038 8.72305391 1.25 5.875 C0.63640625 5.15054688 0.0228125 4.42609375 -0.609375 3.6796875 C-1.06828125 3.12539062 -1.5271875 2.57109375 -2 2 C-1.34 1.34 -0.68 0.68 0 0 Z " fill="#022077" transform="translate(52,93)"/>
<path d="M0 0 C0.33 0 0.66 0 1 0 C1 3.3 1 6.6 1 10 C1.99 10 2.98 10 4 10 C4 11.65 4 13.3 4 15 C2.68 15 1.36 15 0 15 C0 10.05 0 5.1 0 0 Z " fill="#18A3F4" transform="translate(72,121)"/>
<path d="M0 0 C3.0483248 0.32660623 4.00507689 1.00522194 6.1875 3.25 C7.98276778 5.97385456 8.63365868 7.79451349 9 11 C8.01 11.495 8.01 11.495 7 12 C6.66226563 11.38511719 6.32453125 10.77023438 5.9765625 10.13671875 C5.53054687 9.32847656 5.08453125 8.52023438 4.625 7.6875 C4.18414062 6.88699219 3.74328125 6.08648437 3.2890625 5.26171875 C2.26486665 3.46472057 1.14732862 1.72099292 0 0 Z " fill="#29C6DD" transform="translate(109,118)"/>
<path d="M0 0 C3.74281699 2.38179263 6.97727468 4.74475735 10 8 C9.67 8.99 9.34 9.98 9 11 C8.67 10.01 8.34 9.02 8 8 C6.67592331 7.31513275 5.34090759 6.65129797 4 6 C1.75 4 1.75 4 0 2 C0 1.34 0 0.68 0 0 Z " fill="#1067E3" transform="translate(50,97)"/>
<path d="M0 0 C2.31 1.65 4.62 3.3 7 5 C6.67 6.32 6.34 7.64 6 9 C5.01 9.33 4.02 9.66 3 10 C3 8.02 3 6.04 3 4 C2.34 4 1.68 4 1 4 C0.67 2.68 0.34 1.36 0 0 Z " fill="#2AC3C9" transform="translate(134,55)"/>
<path d="M0 0 C1.258125 0.12375 2.51625 0.2475 3.8125 0.375 C4.87404297 0.47941406 4.87404297 0.47941406 5.95703125 0.5859375 C8 1 8 1 11 3 C8.00468461 3.99843846 6.82744268 4.00732761 3.8125 3.5625 C2.554375 3.376875 1.29625 3.19125 0 3 C0 2.01 0 1.02 0 0 Z " fill="#1095EB" transform="translate(64,161)"/>
<path d="M0 0 C4 0 4 0 6.6875 2.375 C9 5 9 5 10 7 C8.68 7 7.36 7 6 7 C5.525625 6.34 5.05125 5.68 4.5625 5 C4.046875 4.34 3.53125 3.68 3 3 C0.37374861 2.66574265 0.37374861 2.66574265 -2 3 C-1.34 2.01 -0.68 1.02 0 0 Z " fill="#1068C9" transform="translate(37,141)"/>
<path d="M0 0 C2.64 0 5.28 0 8 0 C8 0.66 8 1.32 8 2 C9.65 2 11.3 2 13 2 C13.33 2.99 13.66 3.98 14 5 C12.22739369 4.54857225 10.4569632 4.08859477 8.6875 3.625 C7.20830078 3.24214844 7.20830078 3.24214844 5.69921875 2.8515625 C3 2 3 2 0 0 Z " fill="#0A406E" transform="translate(94,31)"/>
<path d="M0 0 C0.83144531 0.2165625 0.83144531 0.2165625 1.6796875 0.4375 C2.40414062 0.623125 3.12859375 0.80875 3.875 1 C4.59429687 1.185625 5.31359375 1.37125 6.0546875 1.5625 C7.99289317 2.07313965 7.99289317 2.07313965 10 2 C10 2.66 10 3.32 10 4 C9.01 4 8.02 4 7 4 C7.33 4.99 7.66 5.98 8 7 C7.01 7 6.02 7 5 7 C4.87625 6.071875 4.87625 6.071875 4.75 5.125 C4.18741541 2.81562433 4.18741541 2.81562433 1.9375 1.75 C1.298125 1.5025 0.65875 1.255 0 1 C0 0.67 0 0.34 0 0 Z " fill="#041E77" transform="translate(64,136)"/>
<path d="M0 0 C0.66 0.33 1.32 0.66 2 1 C1.01 4.96 0.02 8.92 -1 13 C-1.33 13 -1.66 13 -2 13 C-3.35384615 5.73846154 -3.35384615 5.73846154 -1.5625 2 C-1.046875 1.34 -0.53125 0.68 0 0 Z " fill="#012971" transform="translate(23,61)"/>
<path d="M0 0 C0.66 0.33 1.32 0.66 2 1 C1.01 2.485 1.01 2.485 0 4 C-0.66 4 -1.32 4 -2 4 C-2.66 5.32 -3.32 6.64 -4 8 C-4 7.34 -4 6.68 -4 6 C-5.32 5.67 -6.64 5.34 -8 5 C-7.67 4.34 -7.34 3.68 -7 3 C-5.33499557 2.65846063 -3.66821323 2.32550502 -2 2 C-1.34 1.34 -0.68 0.68 0 0 Z " fill="#083B6C" transform="translate(128,71)"/>
<path d="M0 0 C0.86625 0.3403125 0.86625 0.3403125 1.75 0.6875 C0.4375 3.1875 0.4375 3.1875 -1.25 5.6875 C-2.24 5.6875 -3.23 5.6875 -4.25 5.6875 C-4.25 5.0275 -4.25 4.3675 -4.25 3.6875 C-4.91 3.3575 -5.57 3.0275 -6.25 2.6875 C-2.80384615 -0.38942308 -2.80384615 -0.38942308 0 0 Z " fill="#04276D" transform="translate(122.25,174.3125)"/>
<path d="M0 0 C-2.6860286 1.79068573 -4.6626589 2.66055791 -7.6875 3.625 C-8.49574219 3.88539062 -9.30398437 4.14578125 -10.13671875 4.4140625 C-10.75160156 4.60742188 -11.36648437 4.80078125 -12 5 C-12 4.01 -12 3.02 -12 2 C-7.8794254 0.00214565 -4.54805635 -0.17835515 0 0 Z " fill="#25A9D3" transform="translate(71,54)"/>
<path d="M0 0 C0.66 0.33 1.32 0.66 2 1 C1.34 2.98 0.68 4.96 0 7 C-1.65 6.67 -3.3 6.34 -5 6 C-5 5.34 -5 4.68 -5 4 C-3.37373596 2.61767557 -1.7074998 1.28062485 0 0 Z " fill="#0CC4F1" transform="translate(39,45)"/>
<path d="M0 0 C2.97 0.99 5.94 1.98 9 3 C9 3.66 9 4.32 9 5 C6.75 5.25 6.75 5.25 4 5 C1.6875 3.0625 1.6875 3.0625 0 1 C0 0.67 0 0.34 0 0 Z " fill="#011E6D" transform="translate(57,182)"/>
<path d="M0 0 C1.32 0.66 2.64 1.32 4 2 C1.36 3.65 -1.28 5.3 -4 7 C-4 6.01 -4 5.02 -4 4 C-3.01 3.67 -2.02 3.34 -1 3 C-0.67 2.01 -0.34 1.02 0 0 Z " fill="#15B4E9" transform="translate(118,172)"/>
<path d="M0 0 C3.63 2.31 7.26 4.62 11 7 C10.01 7.33 9.02 7.66 8 8 C4.74679343 6.33168894 1.88138209 4.24107496 -1 2 C-0.67 1.34 -0.34 0.68 0 0 Z " fill="#0F51D7" transform="translate(60,105)"/>
<path d="M0 0 C3.62528568 -0.20140476 5.86501708 0.14223235 9 2 C8.34 3.32 7.68 4.64 7 6 C6.01 5.34 5.02 4.68 4 4 C4 3.34 4 2.68 4 2 C2.68 1.34 1.36 0.68 0 0 Z " fill="#1AE8DD" transform="translate(83,96)"/>
<path d="M0 0 C1.32 0 2.64 0 4 0 C4.33 1.65 4.66 3.3 5 5 C4.01 5.33 3.02 5.66 2 6 C0 3 0 3 0 0 Z " fill="#1CE6E4" transform="translate(96,83)"/>
<path d="M0 0 C-1 3 -1 3 -4.4375 4.75 C-5.613125 5.1625 -6.78875 5.575 -8 6 C-8.66 5.67 -9.32 5.34 -10 5 C-8.71186658 4.16121545 -7.41936744 3.32913217 -6.125 2.5 C-5.40570313 2.0359375 -4.68640625 1.571875 -3.9453125 1.09375 C-2 0 -2 0 0 0 Z " fill="#24AAD7" transform="translate(52,36)"/>
<path d="M0 0 C2.97 0.99 5.94 1.98 9 3 C9 3.99 9 4.98 9 6 C4.75177626 5.52797514 2.80010291 3.03344482 0 0 Z " fill="#011E80" transform="translate(61,105)"/>
<path d="M0 0 C1.24546405 2.49092811 0.7767578 3.41080733 0 6 C-2.31 6.33 -4.62 6.66 -7 7 C-4.66666667 4.66666667 -2.33333333 2.33333333 0 0 Z " fill="#18A8DB" transform="translate(111,150)"/>
<path d="M0 0 C2.475 0.495 2.475 0.495 5 1 C5.12375 1.639375 5.2475 2.27875 5.375 2.9375 C5.684375 3.9584375 5.684375 3.9584375 6 5 C6.66 5.33 7.32 5.66 8 6 C7.01 6 6.02 6 5 6 C5 5.34 5 4.68 5 4 C4.360625 3.71125 3.72125 3.4225 3.0625 3.125 C1 2 1 2 0 0 Z " fill="#0F81E2" transform="translate(44,148)"/>
<path d="M0 0 C3.93673644 1.31224548 6.22719294 2.91910327 9 6 C6 6 6 6 4 5 C4 4.34 4 3.68 4 3 C2.68 2.67 1.36 2.34 0 2 C0 1.34 0 0.68 0 0 Z " fill="#27C3D4" transform="translate(108,88)"/>
<path d="M0 0 C0.66 0 1.32 0 2 0 C1.67 2.31 1.34 4.62 1 7 C0.01 7 -0.98 7 -2 7 C-1.34 4.69 -0.68 2.38 0 0 Z " fill="#1FC2E0" transform="translate(138,142)"/>
<path d="M0 0 C1.98 0.495 1.98 0.495 4 1 C4 1.99 4 2.98 4 4 C3.01 4 2.02 4 1 4 C0.67 4.99 0.34 5.98 0 7 C-0.93423645 3.98968256 -1.04449911 3.13349732 0 0 Z " fill="#11A9F3" transform="translate(82,123)"/>
<path d="M0 0 C3.77545388 1.09068668 6.47043472 1.9083091 9 5 C5.44219804 4.39009109 2.3171411 3.4216319 -1 2 C-0.67 1.34 -0.34 0.68 0 0 Z " fill="#2CCEDB" transform="translate(91,78)"/>
<path d="M0 0 C-1.8125 2 -1.8125 2 -4 4 C-4.99 4 -5.98 4 -7 4 C-6.625 2.0625 -6.625 2.0625 -6 0 C-3.50907189 -1.24546405 -2.58919267 -0.7767578 0 0 Z " fill="#052167" transform="translate(68,57)"/>
<path d="M0 0 C4.55384615 -0.36923077 4.55384615 -0.36923077 6.8125 1.5 C7.204375 1.995 7.59625 2.49 8 3 C6.02 3.99 6.02 3.99 4 5 C2.68 3.35 1.36 1.7 0 0 Z " fill="#25CDCC" transform="translate(111,40)"/>
<path d="M0 0 C1.65 0.33 3.3 0.66 5 1 C4.67 1.99 4.34 2.98 4 4 C2.35 3.67 0.7 3.34 -1 3 C-0.67 2.01 -0.34 1.02 0 0 Z " fill="#0BD5F4" transform="translate(129,155)"/>
</svg>
