<?xml version="1.0" encoding="utf-8"?>
<!DOCTYPE svg PUBLIC "-//W3C//DTD SVG 1.0//EN" "http://www.w3.org/TR/2001/REC-SVG-20010904/DTD/svg10.dtd">
<svg version="1.0" xmlns="http://www.w3.org/2000/svg" width="433px" height="577px" viewBox="0 0 433 577" preserveAspectRatio="xMidYMid meet">
 <g fill="#013fe9">
  <path d="M172.2 361.6 c-8.5 -5.1 -15.8 -9.9 -16.3 -10.7 -0.5 -0.8 -0.9 -3 -0.9 -5 l0 -3.6 6.1 -0.7 c3.3 -0.3 6.5 -0.8 6.9 -1.1 1.1 -0.7 8.8 -15.8 10.6 -21 3.9 -10.6 4.5 -11.5 8.5 -11.5 l3.7 0 0.7 13.3 c0.3 7.2 0.5 21.3 0.3 31.2 -0.3 17.1 -0.4 18 -2.3 18.2 -1.1 0.1 -8.9 -4 -17.3 -9.1z"/>
 </g>
 <g fill="#004cec">
  <path d="M152.5 349.7 c-15 -9.3 -14.5 -8.9 -13.6 -12.3 0.5 -2.1 1.6 -3.2 4 -4 3.5 -1.1 14.7 -11.7 19.6 -18.4 1.7 -2.2 3.8 -4.9 4.8 -5.9 1 -1 2.1 -3.7 2.5 -6.1 0.5 -3 1.6 -4.9 3.5 -6.4 l2.8 -2.1 6.6 3.5 c4.6 2.5 6.7 3.1 7 2.2 0.3 -0.6 0.9 -1 1.4 -0.6 0.5 0.3 0.9 7.5 0.9 16 0 13 -0.2 15.4 -1.5 15.4 -0.8 0 -1.6 -0.8 -1.7 -1.7 -0.1 -1 -0.2 -2.5 -0.4 -3.3 -0.1 -0.8 -0.2 -4.5 -0.3 -8.2 -0.1 -3.8 -0.5 -6.8 -0.9 -6.8 -0.8 0 -3.1 4.6 -5.6 11.5 -2 5.7 -9.4 20.1 -10.9 21.3 -1.1 0.9 -2.2 1.1 -9.7 1.5 -1.6 0.1 -3 0.4 -3 0.7 0 0.3 1.1 2.6 2.4 5.3 1.3 2.6 2.3 4.7 2.2 4.7 -0.1 -0.1 -4.6 -2.9 -10.1 -6.3z"/>
  <path d="M188.9 341.5 c-0.5 -5.4 0 -7.5 1.6 -7.5 1.1 0 1.5 1.2 1.5 4.5 0 3.3 -0.4 4.5 -1.5 4.5 -0.8 0 -1.6 -0.7 -1.6 -1.5z"/>
 </g>
 <g fill="#0157f0">
  <path d="M131.8 336.3 c-8.5 -5.5 -8.8 -5.8 -8.8 -9.5 0 -3.1 0.7 -4.3 4.1 -7.5 2.3 -2.1 4.7 -4.4 5.3 -5.1 0.6 -0.7 4.2 -4.5 8 -8.4 3.8 -3.9 7.4 -8.6 8.2 -10.3 0.7 -1.7 2 -3.8 2.9 -4.5 0.9 -0.7 2.3 -2.6 3.1 -4.1 2.2 -4.4 6.8 -4.3 12.4 0.2 2.5 2 6.9 5.2 9.9 7.2 3.6 2.5 4.7 3.7 3.3 3.7 -3.5 0 -6.9 3.6 -7.5 8.1 -0.3 2.2 -1.4 4.9 -2.4 6 -1 1 -3.1 3.7 -4.8 5.9 -4.9 6.8 -16.1 17.3 -19.7 18.4 -2.6 0.9 -3.2 1.6 -3 3.4 0.5 3.4 -1.4 2.8 -11 -3.5z"/>
  <path d="M189 304.8 c0 -0.6 -0.7 -1.9 -1.6 -2.9 -1.5 -1.6 -1.4 -1.7 0.5 -1.2 1.2 0.3 2.1 0.1 2.1 -0.6 0 -0.6 0.5 -1.1 1 -1.1 0.6 0 1 1.6 1 3.5 0 2.4 -0.5 3.5 -1.5 3.5 -0.8 0 -1.5 -0.5 -1.5 -1.2z"/>
 </g>
 <g fill="#0468f6">
  <path d="M116.5 325.4 c-4.4 -3.6 -10.6 -9 -13.8 -12 -5.3 -5 -5.8 -5.9 -5.5 -9.2 0.3 -3.6 0.4 -3.7 5.3 -4.5 2.8 -0.5 5.9 -1.7 7 -2.7 1.1 -1 3.2 -2.2 4.8 -2.5 1.5 -0.4 3.2 -1.6 3.8 -2.7 0.6 -1 3 -3.8 5.5 -6.1 2.4 -2.3 4.4 -4.6 4.4 -5.2 0 -0.6 1.9 -3.2 4.3 -5.9 3.5 -3.8 5.2 -4.9 8.4 -5.3 4 -0.5 4.5 -0.2 14.2 7.8 5.6 4.6 10.1 8.7 10.1 9.2 0 0.4 -1.3 0.7 -3 0.7 -2.2 0 -3.3 0.7 -4.4 2.8 -0.8 1.6 -2.2 3.5 -3.1 4.2 -0.9 0.7 -2.2 2.8 -2.9 4.5 -0.8 1.7 -4.4 6.4 -8.2 10.3 -3.8 3.9 -7.4 7.7 -8 8.4 -0.6 0.7 -3 3 -5.3 5.1 -4.1 3.8 -5.1 6.2 -2.9 6.9 1.4 0.5 0.2 2.8 -1.5 2.7 -0.7 0 -4.8 -2.9 -9.2 -6.5z"/>
  <path d="M191 253.1 c0 -6 0 -6.1 2.8 -6.1 1.6 0 3.6 0.8 4.5 1.8 2.1 2.3 2.3 9.2 0.3 9.2 -0.7 0 -2.8 0.3 -4.5 0.6 l-3.1 0.7 0 -6.2z"/>
 </g>
 <g fill="#0575f7">
  <path d="M97.3 308.2 c-8.5 -8.5 -8.8 -9 -9.1 -13.8 -0.1 -2.7 0.1 -5.4 0.5 -5.9 1.2 -1.5 7.3 -4.3 12 -5.5 3.3 -0.8 6.3 -3.1 13.8 -10.5 5.4 -5.2 10 -9.5 10.5 -9.5 0.4 0 1.7 -0.9 3 -2 4.5 -3.9 7.4 -2.8 16.5 6.6 8 8.1 8.3 9.3 1.3 5.8 -1.5 -0.8 -3.5 -1.1 -4.5 -0.8 -2.2 0.8 -10.3 9.4 -10.3 10.9 0 0.6 -2 2.9 -4.4 5.2 -2.5 2.3 -4.9 5.1 -5.5 6.1 -0.6 1.1 -2.3 2.3 -3.8 2.7 -1.6 0.3 -3.7 1.5 -4.8 2.4 -2.1 1.9 -6.5 3.4 -10 3.5 -1.1 0.1 -2.1 0.9 -2.3 2 -0.3 1.4 0 1.7 1.1 1.3 1.1 -0.4 2 0.3 2.9 2.4 0.7 1.6 1.6 2.9 1.9 2.9 1.1 0 1.8 4 0.8 4.5 -0.5 0.3 -4.8 -3.4 -9.6 -8.3z"/>
  <path d="M189 304.3 c0 -3.4 1.2 -6.3 2.6 -6.3 1 0 1.4 1.3 1.4 4 0 3.3 -0.3 4 -2 4 -1.2 0 -2 -0.7 -2 -1.7z"/>
  <path d="M191 262.6 c0 -6.7 0.9 -8.3 4.3 -7.8 0.9 0.2 1.7 -0.1 1.7 -0.6 0 -1.2 -3.4 -4.2 -4.8 -4.2 -0.7 0 -1.2 -0.9 -1.2 -2 0 -3.2 4.5 -2.5 10.6 1.5 2.9 1.9 5.6 3.5 5.9 3.5 0.4 0 2.3 1.3 4.2 3 1.8 1.7 3.8 3 4.4 3 0.6 0 0.9 1.7 0.7 3.8 l-0.3 3.7 -5.5 0.3 c-3 0.2 -5.9 0.7 -6.4 1.3 -0.6 0.5 -3.8 0.9 -7.3 0.9 l-6.3 0 0 -6.4z"/>
 </g>
 <g fill="#0280f2">
  <path d="M81 434.3 c-1.9 -0.2 -3.9 -1 -4.5 -1.6 -0.5 -0.7 -2.4 -2.3 -4.1 -3.5 -1.8 -1.2 -5.9 -5.3 -9.3 -9.1 l-6.1 -6.9 7.2 -5.7 c6.8 -5.2 13.8 -10.4 31.5 -23.2 8.6 -6.3 11.3 -6.3 16.8 -0.2 2.8 3.1 3.5 4.7 3.5 7.9 0 5.6 -1.6 8.5 -5.6 9.9 -2 0.7 -4 2.4 -4.6 3.7 -0.6 1.3 -1.9 2.6 -2.9 2.9 -1 0.4 -2.4 1.8 -3.1 3.3 -0.8 1.6 -2.3 2.8 -3.6 3 -1.6 0.2 -2.8 1.5 -3.8 3.7 -0.7 1.9 -1.8 3.6 -2.4 4 -0.7 0.4 -0.7 1.2 0 2.5 0.5 1 1 3.7 1 5.9 0 4.5 0 4.5 -10 3.4z"/>
  <path d="M189 323.3 c0 -19.9 0.4 -23.3 2.6 -23.3 1.2 0 1.4 3.8 1.4 21 0 20.3 -0.1 21 -2 21 -1.9 0 -2 -0.7 -2 -18.7z"/>
  <path d="M86 295.8 c-2.2 -2.9 -4.6 -6 -5.3 -6.8 -8.7 -10.7 -7.2 -18 3.8 -18 4.8 0 5.5 -0.2 5.5 -2 0 -1.7 0.7 -2 4.4 -2 2.8 0 4.6 -0.5 4.9 -1.4 0.3 -0.7 2.3 -1.6 4.6 -2 2.9 -0.4 5.2 -1.8 8.3 -5 2.4 -2.4 5.3 -4.6 6.6 -5 1.2 -0.4 2.2 -1.2 2.2 -1.7 0 -0.5 1.9 -0.9 4.2 -0.9 3.8 0 4.7 0.5 9.1 5.2 2.7 2.9 5.8 6.7 7 8.3 1.9 2.7 2 2.9 0.2 1.5 -1.1 -0.8 -2.6 -2.1 -3.3 -2.7 -1.9 -1.9 -4.6 -1.6 -7.2 0.7 -1.3 1.1 -2.6 2 -3 2 -0.5 0 -5.1 4.3 -10.5 9.5 -7.5 7.4 -10.5 9.7 -13.8 10.5 -4.6 1.1 -10.8 4 -11.9 5.4 -0.3 0.5 -0.5 1.4 -0.3 2 0.2 0.6 0.6 2.6 0.9 4.4 0.8 4.8 -1.5 4.1 -6.4 -2z"/>
  <path d="M191 274.8 c0.1 -9.1 1.6 -13.2 4 -10.3 1.4 1.7 5.1 2 6.7 0.4 0.5 -0.5 3.3 -1.1 6.2 -1.1 2.9 -0.1 5.4 -0.5 5.7 -1 0.3 -0.4 0.1 -0.8 -0.5 -0.8 -0.6 0 -2.6 -1.4 -4.4 -3 -1.9 -1.7 -3.8 -3 -4.2 -3 -0.3 0 -3 -1.6 -5.9 -3.5 -2.9 -1.9 -5.9 -3.5 -6.5 -3.5 -0.7 0 -1.1 -0.8 -0.9 -1.7 0.4 -2.3 3.8 -3 3.8 -0.9 0 1 0.9 1.6 2.4 1.6 2.2 0 16.4 7.3 17.6 9 0.3 0.4 2.1 1.5 4 2.3 1.9 0.9 5.4 3.3 7.8 5.5 3.5 3.2 4.2 4.4 4.2 7.6 l0 3.8 -8.2 -0.7 c-7.9 -0.6 -8.6 -0.5 -14.3 2.4 -3.5 1.8 -7.6 3.1 -9.7 3.1 -2.1 0 -3.8 0.5 -3.8 1 0 0.6 -0.9 1 -2 1 -1.8 0 -2 -0.7 -2 -8.2z"/>
 </g>
 <g fill="#018af1">
  <path d="M98.6 449.5 c-0.3 -0.8 -1.6 -1.5 -2.8 -1.5 -1.3 0 -4.9 -2.2 -8.3 -5.1 -11.7 -10 -24.5 -22.2 -24 -22.7 1.3 -1.3 3.5 -0.9 4 0.8 0.8 2.4 6.9 7 9.3 7 1.1 0 2.2 0.7 2.6 1.5 0.3 0.8 1.1 1.2 1.9 0.9 0.7 -0.2 2.6 0 4 0.5 3.1 1.2 3.5 0.1 1.3 -3.8 -1.4 -2.5 -1.1 -5.6 0.8 -8.1 0.7 -0.8 1.7 -2.7 2.4 -4.2 0.6 -1.5 2 -2.8 3.4 -3 1.3 -0.2 2.8 -1.5 3.6 -3 0.7 -1.5 2.1 -2.9 3.1 -3.3 1 -0.3 2.3 -1.6 2.9 -2.9 0.6 -1.3 2.7 -3 4.6 -3.7 5.1 -1.8 6.5 -5.7 3.7 -10.2 -2.9 -4.8 -4.3 -5.7 -8.5 -5.9 -2 -0.1 -3.6 -0.3 -3.6 -0.4 0 -0.2 1.5 -1.5 3.4 -2.9 l3.4 -2.6 9.9 9.8 c5.4 5.4 12.8 12.6 16.6 15.9 5.8 5.3 6.7 6.5 6.7 9.5 0 1.9 -0.8 4.5 -1.7 5.8 -6.3 8.2 -6.2 8.1 -11.7 8.1 l-5.1 0 -2.3 4.8 c-1.2 2.6 -2.2 6.2 -2.2 8 0 2.7 0.3 3.2 2.5 3.2 2.2 0 2.5 0.4 2.5 3.9 0 3.8 0 3.8 -4.6 4.5 -8.7 1.2 -17.1 0.7 -17.8 -0.9z"/>
  <path d="M91.5 387.5 c1.7 -1.4 3.7 -2.5 4.5 -2.5 1.1 0.1 0.9 0.4 -0.5 1.2 -1.1 0.6 -2.4 1.7 -2.8 2.5 -0.4 0.7 -1.6 1.3 -2.5 1.3 -1.3 -0.1 -0.9 -0.7 1.3 -2.5z"/>
  <path d="M189 354.5 c0.2 -17.9 0.5 -20.5 2.6 -20.5 1.1 0 1.4 3.3 1.4 17.9 0 15.4 -0.2 18 -1.6 18.5 -0.9 0.3 -1.8 0.6 -2 0.6 -0.3 0 -0.4 -7.4 -0.4 -16.5z"/>
  <path d="M190.6 291.3 c0.7 -12.8 1.2 -14.1 5.3 -13.5 2 0.3 5.1 -0.6 9.5 -2.8 6 -3 7.1 -3.2 14.5 -2.9 4.5 0.3 8.1 0.2 8.1 0 0 -1.2 -8.9 -8.4 -12 -9.8 -1.9 -0.8 -3.7 -1.9 -4 -2.3 -0.3 -0.4 -5.1 -3.3 -10.7 -6.5 -5.7 -3.1 -10.3 -6.1 -10.3 -6.6 0 -1.5 6.7 -1 8.4 0.6 0.8 0.8 1.9 1.5 2.5 1.5 0.6 0 1.1 0.7 1.1 1.5 0 1 1 1.5 3 1.5 1.7 0 3 0.5 3 1 0 0.6 0.6 1 1.3 1 0.8 0 2.4 0.9 3.7 2 1.3 1.1 3.4 2.3 4.7 2.6 1.3 0.4 2.3 1 2.3 1.5 0 0.5 0.4 0.9 0.9 0.9 1.5 0 11.1 6.2 11.1 7.1 0 0.5 0.6 0.9 1.4 0.9 0.7 0 2.5 0.9 4 2.1 2.1 1.6 2.6 2.9 2.6 6.4 l0 4.3 -6.7 0.5 c-3.8 0.3 -9 1.1 -11.8 1.7 -2.7 0.6 -6.3 1.4 -8 1.7 -1.6 0.3 -5.2 2.6 -8 4.9 -4 3.5 -5.7 4.4 -8.7 4.4 -3.7 0 -3.8 0.1 -3.8 3.5 0 2.8 -0.4 3.5 -2 3.5 -1.9 0 -2 -0.5 -1.4 -10.7z"/>
  <path d="M79.9 286.7 c-4.3 -3.4 -13.2 -20.3 -12.7 -24.4 0.2 -2.3 0.8 -2.9 3.6 -3.1 2 -0.2 3.2 -0.9 3.2 -1.8 0 -0.8 0.9 -1.4 1.9 -1.4 1.1 0 2.3 -0.5 2.7 -1.1 0.4 -0.8 2.9 -0.9 7.5 -0.5 5.7 0.6 6.9 0.5 6.9 -0.7 0 -1.8 2.1 -2.7 6 -2.7 5.6 0 9.2 -1.3 10.2 -3.6 0.8 -1.7 1.9 -2.4 4 -2.4 1.6 0 3.1 -0.6 3.4 -1.5 0.4 -1 2 -1.5 4.5 -1.5 3.3 0 4.1 0.4 5.5 3.2 0.9 1.8 3.3 5.3 5.3 7.8 5.7 7.3 5.8 7.5 2.6 5.4 -5.1 -3.4 -9.6 -4.5 -11.2 -2.8 -0.8 0.8 -1.9 1.4 -2.5 1.4 -0.6 0 -3 2 -5.5 4.5 -3.2 3.3 -5.4 4.7 -8.4 5.1 -2.4 0.4 -4.4 1.4 -5 2.6 -0.5 1 -1.5 1.8 -2.2 1.7 -0.7 -0.1 -2 0.1 -3.1 0.6 -1.2 0.5 -2.1 0.3 -2.7 -0.6 -0.6 -1.1 -0.9 -0.8 -0.9 0.9 0 1.4 -0.6 2.2 -1.8 2.2 -1 0 -2.4 0.6 -3 1.2 -1 1 -1.7 1 -3.2 0 -2.3 -1.4 -4.7 -0.7 -6 1.8 -0.7 1.3 -0.5 2.1 0.4 2.9 0.8 0.7 1.6 2.7 1.8 4.6 0.2 1.9 0.4 3.5 0.3 3.5 0 0 -0.7 -0.6 -1.6 -1.3z"/>
 </g>
 <g fill="#0293f3">
  <path d="M141 475 c0 -1.5 -0.9 -2.2 -3 -2.6 -1.6 -0.4 -3 -1 -3 -1.5 0 -0.5 -2.1 -0.9 -4.8 -0.9 -4.1 0 -5.9 -0.8 -14.4 -6.4 -12.9 -8.6 -28.8 -20.5 -28.8 -21.7 0 -1.2 6.2 0.1 8.1 1.7 0.8 0.8 2.5 1.4 3.7 1.4 1.1 0 2.5 0.7 3 1.6 0.6 1.1 2.1 1.4 5.8 1.2 l4.9 -0.3 0.3 -7.5 c0.2 -5.7 0.9 -8.9 2.9 -13.2 1.5 -3.2 3.3 -5.8 4 -5.8 0.7 0 1.3 0.5 1.3 1 0 0.6 1.5 1 3.4 1 2.6 0 4 -0.7 5.8 -2.9 5.7 -7.1 5.8 -7.3 4.6 -9.5 -2 -3.7 -9.9 -12.5 -11.9 -13.1 -1 -0.4 -1.9 -1.1 -1.9 -1.7 0 -0.5 -1 -2.4 -2.2 -4.1 -1.5 -2.1 0.8 -0.6 6.2 4.2 4.7 4.1 8.7 7.7 9 8 1.3 1.5 9 7.1 9.7 7.1 0.5 0 1.9 1 3.3 2.3 1.4 1.3 5 3.7 7.9 5.3 3 1.6 5.7 3.6 6.1 4.4 0.4 0.8 1.2 2.5 1.8 3.7 1.5 2.9 1.5 6.4 -0.3 13.6 -1.1 4.8 -2.1 6.5 -5.4 9.4 -3.1 2.6 -4.1 4.2 -4.1 6.5 0 2 -0.9 3.9 -2.6 5.5 -2.4 2.2 -2.5 2.7 -1.9 8.8 l0.7 6.5 -4.1 0 c-3.5 0 -4.1 -0.3 -4.1 -2z"/>
  <path d="M190.2 306.4 c0.6 -14.6 1 -15.7 5.8 -14.8 1.9 0.4 3.6 -0.5 7.5 -3.9 2.8 -2.4 6.4 -4.7 8 -5 1.7 -0.3 5.3 -1.1 8 -1.7 2.8 -0.6 8 -1.4 11.8 -1.7 4.6 -0.4 6.7 -0.9 6.7 -1.8 0 -1.6 -4.7 -5.5 -6.6 -5.5 -0.8 0 -1.4 -0.4 -1.4 -0.9 0 -0.9 -10.8 -7.9 -15.2 -9.8 -3.9 -1.7 -3.5 -3.3 0.7 -3.3 1.9 0 3.5 0.5 3.5 1 0 0.6 0.9 1 2 1 1.1 0 2 0.5 2 1 0 0.6 0.7 1 1.5 1 0.8 0 1.5 0.5 1.5 1 0 0.6 0.7 1 1.5 1 0.8 0 1.5 0.9 1.5 2 0 1.5 0.7 2 2.5 2 1.6 0 2.5 0.6 2.5 1.5 0 1 1 1.5 3 1.5 3.8 0 7.5 5.2 5.9 8.2 -0.6 1.1 -0.9 3.9 -0.8 6.3 0.4 5.6 -2 8.5 -6.8 8.5 -3.3 0 -5.7 1 -10.2 4.3 -1.3 0.9 -3.4 1.7 -4.6 1.7 -1.3 0 -5 1.4 -8.3 3 -3.4 1.7 -6.6 3 -7.2 3 -0.6 0 -3.1 1.2 -5.5 2.6 -3.9 2.2 -4.5 3.1 -5.1 7 -0.5 3.5 -1 4.4 -2.7 4.4 -1.9 0 -2 -0.4 -1.5 -13.6z"/>
  <path d="M70.6 272.4 c-0.3 -0.9 -0.4 -1.9 -0.1 -2.4 0.3 -0.4 -0.2 -1 -1 -1.4 -1.6 -0.6 -4.1 -5.8 -6 -12.8 -1.1 -3.9 -1.1 -4.8 0.1 -5.2 0.8 -0.3 1.4 -1.9 1.4 -3.8 0 -1.9 0.7 -4.4 1.6 -5.6 1.4 -2 2.3 -2.2 7.7 -2.1 7.5 0.3 12.3 -0.7 13.1 -2.7 0.3 -0.8 1.8 -1.4 3.5 -1.4 1.6 0 6.8 -1.1 11.5 -2.5 10.2 -3 14.7 -3.2 16.8 -0.8 0.9 1 3.4 5.5 5.7 10.1 3.8 7.6 4 8.2 1.9 7.1 -1.3 -0.6 -3.1 -1.8 -4 -2.7 -1.6 -1.4 -2 -1.3 -3.9 1.2 -1.6 2 -2.4 2.4 -3.8 1.6 -1.4 -0.7 -2 -0.4 -2.9 1.4 -1 2.3 -4.6 3.6 -10.2 3.6 -3.8 0 -6 0.9 -6 2.5 0 0.7 -1.2 1.5 -2.7 1.8 -1.6 0.3 -3.8 0.7 -5 1 -1.4 0.4 -2.3 0.1 -2.3 -0.6 0 -0.7 -0.4 -0.6 -1 0.3 -0.8 1.3 -1 1.2 -1 -0.2 0 -2.2 -0.9 -2.2 -3.4 -0.3 -1 0.8 -2.3 1.2 -2.7 0.9 -0.5 -0.3 -0.9 0.1 -0.9 0.9 0 0.8 -1.6 2.7 -3.5 4.3 -3.1 2.5 -3.3 2.9 -2 4.4 0.8 0.9 1.5 2.2 1.5 2.8 0 1.8 -1.8 2.3 -2.4 0.6z"/>
  <path d="M203.8 254.8 c-3.2 -1.7 -5.8 -3.5 -5.8 -4 0 -0.4 1.6 -0.8 3.5 -0.8 2.4 0 3.5 0.5 3.5 1.5 0 1 1 1.5 3 1.5 2.5 0 3 0.4 3 2.5 0 3.1 -0.2 3.1 -7.2 -0.7z"/>
 </g>
 <g fill="#039bf5">
  <path d="M178 492.5 c-14 -3.5 -26.7 -8.8 -49 -20.7 -5.1 -2.7 -21 -13.3 -21 -14 0 -1.1 7.7 1.9 11 4.2 1.5 1.1 3.3 2 3.8 2 0.6 0 1.2 0.5 1.4 1 0.5 1.5 4.8 2.1 8.5 1.1 2.6 -0.8 3.6 -0.6 4.5 0.7 1.8 2.4 7.8 4.5 7.8 2.7 0 -2.7 -1.3 -4.5 -3.3 -4.5 -2 0 -2 -0.1 0.3 -2.5 1.3 -1.4 2.5 -2.3 2.8 -2.1 1 1 4.7 -4.2 5 -6.9 0.2 -2 1.6 -4.2 4.3 -6.7 3.2 -2.9 4.3 -4.9 5.4 -9.5 1.1 -4.6 1.1 -6 0.2 -6.8 -0.7 -0.5 -1.1 -1.7 -0.9 -2.6 0.3 -1.7 -8.5 -10.9 -10.5 -10.9 -0.7 0 -1.3 -0.4 -1.3 -0.9 0 -0.5 -1.5 -1.4 -3.3 -2 -2.3 -0.8 -3.6 -2.1 -4.5 -4.2 l-1.1 -3.2 2.2 2.2 c1.3 1.1 2.8 2.1 3.3 2.1 0.5 0 2 1 3.4 2.3 4.1 3.8 23.4 14 32 17 8.1 2.7 15.2 4.7 17.1 4.7 1.2 0 1.9 0.7 1.9 2 0 1.1 0.7 2 1.5 2 0.8 0 1.5 0.9 1.5 2 0 1.1 0.6 2.3 1.4 2.6 0.8 0.3 1.8 1.9 2.1 3.5 0.4 1.6 1 2.9 1.5 2.9 0.4 0 1 2.8 1.4 6.3 1.8 19.3 1.8 19.1 4.2 21.2 1.8 1.5 2.5 3.4 3 8.1 l0.6 6.1 -4.3 0.6 c-10.6 1.5 -27.5 1.6 -32.9 0.2z"/>
  <path d="M190 337.2 c0 -9.8 0.5 -20.4 1.1 -23.5 1.1 -5.2 1.6 -5.9 5.5 -8.2 2.3 -1.4 4.8 -2.5 5.4 -2.5 0.6 0 3.9 -1.4 7.2 -3 3.4 -1.7 7.5 -3.2 9 -3.4 1.6 -0.2 3.6 -1 4.6 -1.7 3.4 -2.8 6.2 -3.9 9.6 -3.9 2.6 0 4 -0.7 6 -3.1 1.4 -1.7 2.6 -3.9 2.6 -5 0 -3.3 -2.9 -7.8 -6 -9.4 -1.6 -0.8 -5.8 -3.5 -9.4 -6 -3.5 -2.5 -7.7 -5.1 -9.2 -5.8 -3.9 -1.7 -10.4 -6 -10.4 -6.9 0 -0.5 1.6 -0.8 3.5 -0.8 1.9 0 3.5 0.4 3.5 0.8 0 0.5 1.6 1.4 3.5 2.2 1.9 0.8 3.5 2 3.5 2.7 0 0.7 1.1 1.3 2.5 1.3 1.4 0 2.5 0.5 2.5 1 0 0.6 0.7 1 1.5 1 0.8 0 1.5 0.5 1.5 1 0 0.6 0.5 1 1.2 1 1 0 8.2 4.4 9.8 6 0.3 0.3 1.4 1 2.4 1.6 3.4 1.8 4.2 4 2.2 5.9 -1.5 1.5 -1.6 3.1 -1 13.1 0.6 9.6 0.4 12.5 -1.1 17.4 l-1.8 6 -4.9 0 c-2.6 0 -4.8 -0.4 -4.8 -1 0 -2 -2 -0.9 -6.4 3.5 -3.7 3.6 -5.3 4.5 -8.1 4.5 -2.2 0 -3.8 0.6 -4.1 1.5 -0.4 0.8 -1.5 1.5 -2.5 1.5 -1.4 0 -1.9 0.7 -1.9 3 0 2.2 -0.5 3 -1.8 3 -1 0 -2.2 0.4 -2.7 0.9 -0.6 0.5 -2.1 1.1 -3.4 1.3 -1.9 0.2 -2.6 1.2 -3.7 5.3 -0.7 2.8 -1.3 7.6 -1.4 10.8 0 5 -0.2 5.7 -2 5.7 -1.9 0 -2 -0.7 -2 -17.8z"/>
  <path d="M63.6 253.9 c-2 -3.1 -5.6 -17 -5.6 -21.6 0 -1.9 0.5 -3.9 1 -4.6 0.6 -0.7 1.6 -2 2.4 -3.1 1.3 -1.9 6 -3 19.6 -4.5 4.1 -0.5 11.4 -1.4 16.2 -2.1 10.4 -1.5 16.8 -0.8 19.5 2.3 1.1 1.2 2.6 4.9 3.3 8.2 0.7 3.3 2.1 7.7 3.2 9.8 2 3.9 1.9 6.6 -0.1 2.9 -0.6 -1.1 -2.8 -3.4 -5 -5.1 l-3.9 -3.1 -8.7 2.5 c-4.8 1.4 -10 2.5 -11.6 2.5 -1.7 0 -3.2 0.7 -3.8 1.8 -0.5 1 -2.3 1.9 -4.2 2 -1.8 0.1 -3.8 0.7 -4.4 1.2 -0.6 0.5 -2.8 0.5 -5.5 -0.1 -4.1 -0.9 -4.7 -0.8 -6.2 1.2 -1 1.1 -1.8 3.6 -1.8 5.3 0 1.8 -0.6 4.1 -1.4 5.1 -1.3 1.8 -1.4 1.7 -3 -0.6z"/>
  <path d="M196 250.4 c-4.9 -2.7 -5.8 -4.7 -2.2 -5.2 1.5 -0.2 2.2 0.2 2.2 1.2 0 1.1 0.9 1.6 3 1.6 2.5 0 3 0.4 3 2.5 0 3 -0.3 3 -6 -0.1z"/>
 </g>
 <g fill="#05acfb">
  <path d="M197 496.4 c-19.5 -3.5 -30.3 -6.7 -44.5 -12.9 -7.6 -3.3 -2.8 -2.6 9.5 1.5 4.7 1.5 10.1 3 12 3.3 1.9 0.3 4.6 0.9 6 1.3 2.9 0.8 24.5 0.7 27.2 -0.2 1.4 -0.4 1.6 -0.9 0.8 -2.4 -1.3 -2.4 -1.3 -3 0 -3 0.6 0 1 0.7 1 1.5 0 0.8 0.5 1.5 1 1.5 2.1 0 1 -5 -1.5 -6.6 -1.4 -0.9 -2.5 -2.3 -2.5 -3 0 -0.8 -0.4 -1.4 -1 -1.4 -0.5 0 -1 0.8 -1 1.7 0 0.9 -0.3 1.3 -0.7 1 -0.9 -1 -1 -18.6 0 -18 0.4 0.2 0.7 -1.4 0.7 -3.7 0 -2.3 -0.4 -3.9 -0.9 -3.6 -0.5 0.3 -1.2 -1 -1.5 -3 -0.6 -3 -1 -3.4 -2.9 -3 -1.2 0.3 -1.7 0.3 -1.1 0.1 1.3 -0.7 0.6 -5.5 -0.8 -5.5 -1.1 0 -3.8 -2.5 -3.8 -3.5 0 -0.3 0.6 -0.3 1.3 0.1 0.8 0.5 0.9 0.4 0.1 -0.5 -0.5 -0.6 -3.7 -1.8 -7 -2.7 -5 -1.3 -12.9 -5.3 -12 -6.1 0.1 -0.2 2 0.3 4.2 1.1 18.8 6.6 35.8 8.1 55.4 5.1 11.9 -1.8 14 -1.9 14 -0.1 0 0.7 0.9 1.6 2 1.9 1.5 0.4 2 1.4 2 4.1 0 2 -0.4 3.6 -1 3.6 -0.5 0 -1 1.9 -1 4.3 0 2.3 -0.4 4.8 -0.8 5.5 -1.9 3 3.4 19.2 6.3 19.2 0.6 0 2.3 0.6 3.8 1.3 2.4 1.1 2.7 1.8 2.7 6.1 0 4.2 -0.4 5.3 -3.3 8.1 -4.2 4.1 -7.5 5.2 -22.2 7 -14.4 1.8 -30.3 1.8 -40.5 -0.1z"/>
  <path d="M128.2 471.6 c-3.2 -1.8 -3.7 -2.5 -1.3 -1.9 1.1 0.3 2.6 1.1 3.2 1.9 1.3 1.6 1.2 1.6 -1.9 0z"/>
  <path d="M202.1 457.8 c-0.1 -1 -0.6 -1.7 -1.2 -1.5 -0.6 0.1 -1.2 -0.8 -1.4 -2 -0.1 -1.3 0.1 -2.3 0.5 -2.3 1.2 0 3.3 4.8 2.7 6.2 -0.4 0.9 -0.6 0.7 -0.6 -0.4z"/>
  <path d="M190.1 362.8 c0 -4.6 0.5 -12.3 1 -17.3 0.5 -4.9 1 -9.9 1 -11 0 -2.7 2.7 -5.4 4.8 -4.8 1.1 0.3 2.2 0 2.5 -0.6 0.4 -0.6 1.6 -1.1 2.6 -1.1 1.4 0 1.8 -0.7 1.7 -2.7 -0.2 -2 0.3 -2.8 1.8 -3.1 1.1 -0.2 2.4 -1 2.8 -1.8 0.4 -0.8 2.3 -1.4 4.2 -1.4 2.8 0 4.5 -1 8.7 -5.1 5 -4.8 5.4 -5 9.3 -4.4 5.3 0.7 7.2 0 8 -3.2 0.6 -2.4 2.7 -5.3 3.9 -5.3 0.3 0 0.6 7 0.6 15.6 0 17.9 1.3 15.2 -12.5 25.1 -11.2 7.9 -15.4 11 -19.6 14.1 -12.2 9.2 -18.6 13.9 -19.6 14.6 -1 0.5 -1.3 -1.2 -1.2 -7.6z"/>
  <path d="M241.3 278.1 c-0.7 -1.1 -2.6 -2.7 -4.3 -3.7 -3.9 -2.4 -3.8 -3.4 0.5 -3.4 1.9 0 3.5 0.3 3.5 0.8 0 0.4 1 1.2 2.2 1.7 2.6 1.2 3.7 4.5 1.5 4.5 -0.9 0 -1.7 0.5 -1.9 1 -0.2 0.6 -0.8 0.2 -1.5 -0.9z"/>
  <path d="M225 266.7 c-4.8 -3.3 -13.5 -8.2 -19.7 -11.3 -5.9 -2.9 -6.7 -4.4 -2.5 -4.4 4.2 0 7.2 1.1 7.2 2.6 0 0.8 1 1.4 2.5 1.4 1.8 0 2.5 0.5 2.5 2 0 1.6 0.7 2 3.5 2 2.4 0 3.5 0.5 3.5 1.5 0 0.9 0.9 1.5 2.5 1.5 1.4 0 2.5 0.5 2.5 1 0 0.6 0.7 1 1.5 1 0.9 0 1.5 0.9 1.5 2.5 0 3.1 -0.6 3.1 -5 0.2z"/>
  <path d="M194.8 249.4 c-3.8 -2 -3.5 -3.4 0.7 -3.4 3.1 0 3.5 0.3 3.5 2.5 0 2.9 -0.5 3 -4.2 0.9z"/>
  <path d="M59 231.5 c-1.2 -1.4 -1.5 -4.8 -1.3 -15.6 0.2 -15.5 1.6 -24.9 3.9 -24.9 0.8 0 1.4 0.9 1.4 2 0 2.4 3.5 2.7 6.4 0.5 1.1 -0.8 2.9 -1.5 4.1 -1.5 1.2 0 3 -0.7 4.1 -1.5 2.3 -1.7 15.4 -2.1 17.1 -0.4 0.6 0.6 5.9 1.2 12.7 1.3 6.3 0.1 11.8 0.5 12.1 0.7 0.9 1 0.6 12.4 -0.4 15.9 -1.5 4.7 -1.4 11.3 0.3 18.2 1 4.4 1 5.5 0 5.1 -0.7 -0.2 -1.7 -1.7 -2.4 -3.3 -0.6 -1.5 -2.3 -3.9 -3.7 -5.2 -2.2 -2 -3.3 -2.3 -9.7 -2.1 -4 0.1 -9.3 0.9 -11.7 1.7 -2.5 0.9 -6.2 1.5 -8.4 1.4 -11.6 -0.5 -20.5 2.5 -20.5 6.8 0 0.8 -0.4 1.3 -0.9 1 -0.5 -0.4 -1.1 -0.1 -1.3 0.5 -0.2 0.7 -0.9 0.4 -1.8 -0.6z"/>
 </g>
 <g fill="#08b7fd">
  <path d="M241.5 494 c2.2 -1.2 4.8 -2.3 5.8 -2.5 4.4 -1 6.3 -1.9 9.4 -5 3.3 -3.2 4.9 -7.1 1.9 -4.6 -1.2 1 -1.5 0.7 -1.8 -1.6 -0.2 -1.5 -0.9 -2.9 -1.5 -2.9 -0.7 -0.1 -1.7 -0.2 -2.1 -0.3 -0.5 0 -1.9 -2 -3.3 -4.3 -3.1 -5.5 -3.5 -10.1 -2.7 -26.3 0.2 -3.5 0.7 -4.9 1.6 -4.7 0.8 0.1 1.1 -0.2 0.7 -0.8 -0.3 -0.5 -1.7 -1 -3.1 -1 -1.5 0 -2.4 -0.6 -2.4 -1.6 0 -1.1 -0.6 -1.3 -2 -0.9 -1 0.3 -3.2 -0.1 -4.7 -0.9 l-2.8 -1.5 3 -0.1 c1.7 0 4.6 -0.5 6.5 -1.1 7 -2.1 20.5 -4.9 24.1 -4.9 2.4 0 3.9 0.5 4.3 1.6 1.1 2.9 0.6 9.9 -0.9 12.8 -2.2 4.2 -1.9 6 2 10.2 2.6 3 3.5 4.8 3.5 7.7 0 2.9 0.4 3.7 1.8 3.7 2.5 0 4.2 1.9 4.2 4.7 0 1.6 0.6 2.3 2 2.3 1.8 0 2 0.7 2 5.4 0 5.2 -0.1 5.5 -3 6.1 -1.7 0.4 -3.9 1.5 -4.8 2.4 -3.2 3.3 -21.9 8.5 -35.1 9.7 l-6.6 0.6 4 -2.2z"/>
  <path d="M192.2 366.3 c0.2 -2.2 0.9 -2.8 2.8 -2.9 2.3 -0.1 5.2 -1 7.4 -2.2 0.5 -0.3 0.6 0 0.2 0.6 -0.8 1.3 -9.1 7.2 -10.1 7.2 -0.3 0 -0.5 -1.2 -0.3 -2.7z"/>
  <path d="M211 355.6 c0 -1.5 9.1 -9.6 10.9 -9.6 1 0 2.1 -0.6 2.4 -1.2 0.2 -0.7 0.7 -1 1.1 -0.7 0.4 0.4 -1.2 2 -3.4 3.5 -2.3 1.6 -5.7 4.2 -7.6 5.8 -1.9 1.5 -3.4 2.5 -3.4 2.2z"/>
  <path d="M231.3 270.5 l-2.8 -2.4 3.8 -0.1 c3.3 0 3.7 0.3 3.7 2.5 0 3.1 -1.1 3.2 -4.7 0z"/>
  <path d="M219.8 263.2 c-3.7 -2.2 -3.5 -3.2 0.7 -3.2 3.1 0 3.5 0.3 3.5 2.5 0 2.9 -0.6 3 -4.2 0.7z"/>
  <path d="M117.6 204.9 c-0.3 -1.7 -0.6 -4.7 -0.6 -6.5 0 -3.8 1.1 -3.6 -15.2 -3.8 -5.5 -0.1 -9.2 -0.6 -9.9 -1.3 -1.8 -1.8 -9 -1.6 -11.3 0.2 -1.1 0.8 -2.9 1.5 -4.1 1.5 -1.2 0 -3 0.7 -4.1 1.5 -1 0.8 -3.1 1.5 -4.5 1.5 -2 0 -3.1 0.8 -4.3 3.5 -2.5 5.1 -3.6 5.2 -3.7 0.3 -0.2 -7.6 0.2 -11.2 1.7 -16.8 1.5 -5.1 2 -5.8 8.1 -9.8 7.5 -4.8 8.2 -4.9 26.2 -3 8.7 0.9 11.6 0.9 11.9 0 0.4 -1.3 5.8 -1.5 15.1 -0.6 l6.1 0.7 0 4.5 c0 3.1 -1.1 6.8 -3.4 11.6 -1.9 3.9 -4.1 9.7 -4.9 12.9 -1.9 7.2 -2.3 7.6 -3.1 3.6z"/>
 </g>
 <g fill="#0abffe">
  <path d="M256 493.1 c0 -0.7 10.1 -5.6 15.3 -7.3 1.8 -0.6 4 -1.9 5 -2.9 1 -1.1 2.4 -1.9 3.1 -1.9 0.8 0 1.6 -0.9 1.9 -2 0.3 -1.1 0.1 -2 -0.4 -2 -0.5 0 -0.9 -1.5 -0.9 -3.4 0 -3.2 -2 -6.3 -3.3 -4.9 -1.5 1.5 -3.8 -2.1 -3.3 -5.1 0.4 -2.5 -0.1 -3.8 -2.8 -6.8 -1.8 -2.1 -3.6 -3.5 -3.9 -3.2 -0.3 0.3 -0.4 -0.8 -0.3 -2.5 0.1 -1.7 -0.1 -3.2 -0.6 -3.3 -0.4 -0.2 0.4 -2.7 1.8 -5.6 2.9 -6 2.6 -10.2 -0.5 -10.2 -1.1 0 -2.7 0.7 -3.5 1.6 -0.9 0.8 -1.6 1.1 -1.6 0.6 0 -0.6 -1.8 -0.6 -4.7 -0.1 -3 0.6 -5 0.5 -5.9 -0.2 -0.8 -0.7 -1.4 -0.7 -1.9 0.1 -0.3 0.6 -1.1 0.8 -1.6 0.4 -1.7 -1 0 -2.1 4.2 -2.8 2.2 -0.4 7.6 -2.3 11.9 -4.2 6.7 -3.1 8.5 -3.5 12.2 -3 2.4 0.4 6.9 0.9 10.1 1.2 5.4 0.5 5.8 0.8 6.4 3.5 0.3 1.6 0.9 2.9 1.4 2.9 0.5 0 0.9 0.9 0.9 1.9 0 2 4 10.4 5.3 10.9 0.4 0.2 0.7 0.9 0.7 1.6 0 0.6 0.8 1.9 1.8 2.8 2.7 2.6 3.7 4 5.2 7.6 0.8 1.7 1.8 3.2 2.2 3.2 0.5 0 0.8 2.7 0.8 6 0 3.3 -0.4 6 -0.9 6 -0.5 0 -1.6 0.6 -2.3 1.3 -2.8 2.9 -21.7 12 -29.8 14.5 -1.9 0.6 -5.1 1.6 -7 2.3 -5.7 1.8 -15 3.7 -15 3z"/>
  <path d="M238 274.9 c-5.7 -3.7 -6.1 -4.9 -1.6 -4.9 2 0 3.6 0.5 3.6 1 0 0.6 0.7 1 1.5 1 1 0 1.5 1 1.5 3 0 1.7 -0.1 3 -0.2 2.9 -0.2 0 -2.3 -1.4 -4.8 -3z"/>
  <path d="M228.3 268.7 c-4.2 -2.8 -4.1 -3.7 0.2 -3.7 3.2 0 3.5 0.2 3.5 3 0 1.7 -0.1 3 -0.2 2.9 -0.2 0 -1.8 -1 -3.5 -2.2z"/>
  <path d="M216.8 261.7 c-4 -1.6 -3.6 -3.7 0.7 -3.7 3.1 0 3.5 0.3 3.5 2.5 0 2.7 -0.2 2.8 -4.2 1.2z"/>
  <path d="M198.3 251.2 c-2.4 -1.5 -4.3 -3 -4.3 -3.4 0 -0.5 1.6 -0.8 3.5 -0.8 1.9 0 3.5 0.5 3.5 1 0 0.6 0.7 1 1.5 1 0.9 0 1.5 0.9 1.5 2.5 0 3.1 -0.5 3.1 -5.7 -0.3z"/>
  <path d="M121.5 191.3 c0.3 -2.5 1.2 -5.7 2.1 -7 0.8 -1.4 1.3 -3.1 1 -3.9 -0.3 -0.8 -0.1 -1.4 0.4 -1.4 0.6 0 1 -0.9 1 -1.9 0 -1.5 -0.7 -2 -3.2 -2 -1.8 0 -4 -0.1 -4.8 -0.2 -2.4 -0.3 -4.4 0.5 -5.7 2.1 -1 1.2 -1.4 1.2 -2.1 0.2 -0.5 -0.8 -2.9 -1.2 -6.3 -1.2 -3 0 -8.1 -0.2 -11.4 -0.6 -13.3 -1.2 -13.7 -1.1 -19.6 2.8 -3 2 -6.1 4.9 -6.9 6.3 -2.2 4.2 -3.3 2.9 -2.7 -3.3 0.8 -9 8.6 -25.3 15.9 -33.4 2.6 -2.9 5.1 -6.1 5.4 -7 0.3 -1 2.2 -2.6 4.2 -3.5 2 -1 4.7 -2.8 5.8 -4 1.5 -1.7 3.3 -2.3 6.2 -2.3 3.7 0 4.2 0.3 5.3 3.5 0.7 1.9 1.7 3.5 2.1 3.5 0.4 0 0.8 0.9 0.8 2 0 1.1 0.7 2 1.5 2 0.9 0 2.8 1.1 4.3 2.6 1.5 1.4 3.9 2.8 5.5 3.1 1.5 0.3 2.7 0.9 2.7 1.4 0 0.5 1.9 0.6 4.3 0.3 4.2 -0.6 12.7 2.2 14.2 4.6 0.3 0.6 1.7 1 3.1 1 2.2 0 2.4 0.4 2.3 4.3 0 3.8 -0.5 4.6 -4.4 7.7 -5.4 4.2 -14.5 16.2 -18 23.6 -1.4 3 -2.8 5.4 -3 5.4 -0.3 0 -0.3 -2.1 0 -4.7z"/>
 </g>
 <g fill="#1fc5e3">
  <path d="M201.8 253.2 c-3.7 -2.2 -3.5 -3.2 0.7 -3.2 3.1 0 3.5 0.3 3.5 2.5 0 2.9 -0.6 3 -4.2 0.7z"/>
  <path d="M165 149 c0 -2.7 0.3 -3 3 -3 1.7 0 3 -0.3 3 -0.6 0 -1.1 -2.9 -3.4 -4.4 -3.4 -0.9 0 -1.6 -0.8 -1.6 -2 0 -1.1 -0.7 -2 -1.5 -2 -0.8 0 -1.5 -0.6 -1.5 -1.3 0 -0.7 -1.1 -2.3 -2.5 -3.5 -2.2 -1.9 -2.5 -3 -2.5 -8.5 0 -3.5 -0.4 -6.7 -0.9 -7.2 -0.4 -0.6 -1.4 -3.2 -2.1 -6 -0.7 -2.7 -2.1 -5.8 -3.1 -6.7 -0.9 -0.9 -1.9 -2.2 -2.1 -2.9 -0.3 -0.8 -2.3 -1.2 -5.6 -1 -4 0.1 -5.4 -0.2 -5.8 -1.4 -0.4 -0.9 -0.4 -1.8 -0.2 -2.1 0.3 -0.2 5.4 -2.3 11.4 -4.5 14.3 -5.5 28 -8.9 38 -9.6 l8.1 -0.6 1 3.9 c0.6 2.9 1.4 4 3.1 4.2 1.8 0.3 2.2 1 2.2 4.3 0 2.8 -0.4 3.9 -1.5 3.9 -2 0 -1.9 3.7 0.1 7.5 0.8 1.7 1.8 5.1 2.1 7.8 0.4 3.6 1 4.7 2.3 4.7 1 0 2 0.9 2.3 2.1 0.3 1.1 1.5 2.3 2.6 2.6 1.2 0.3 2.1 1.4 2.1 2.4 0 1.1 0.5 1.9 1 1.9 0.6 0 1 2.3 1 5 0 4.3 0.3 5 2 5 1.3 0 2 0.7 2 2 0 1.8 -0.7 2 -7.4 2 -8.5 0 -27.4 3.8 -37.2 7.5 -3.6 1.4 -6.8 2.5 -7 2.5 -0.2 0 -0.4 -1.3 -0.4 -3z"/>
 </g>
 <g fill="#27c9d8">
  <path d="M248.8 146.9 c-2.9 -1.6 -2.1 -2.9 1.7 -2.9 2.8 0 3.5 0.4 3.5 2 0 2.2 -2.4 2.6 -5.2 0.9z"/>
  <path d="M234.7 143.5 c-2.7 -0.7 -11.8 -1.5 -20.3 -1.8 -8.5 -0.3 -15.7 -0.7 -15.9 -0.9 -0.3 -0.3 0.1 -0.5 0.7 -0.6 0.7 -0.1 3.3 -0.4 5.6 -0.6 5 -0.5 6 -1.2 4.5 -2.7 -0.9 -0.9 -0.9 -1.6 -0.1 -2.9 0.9 -1.4 0.8 -2.2 -0.5 -3.5 -1 -0.9 -1.4 -2.2 -1 -2.8 0.3 -0.7 0.2 -0.9 -0.2 -0.4 -0.5 0.4 -1.9 -0.3 -3.2 -1.5 -1.6 -1.5 -2.3 -1.7 -2.3 -0.8 0 3.7 -3 -3.3 -3.4 -8.1 -0.4 -3.9 -1.2 -5.9 -2.7 -7.1 -1.2 -1 -1.6 -1.8 -1 -1.8 0.8 0 0.9 -0.5 0.2 -1.9 -1.3 -2.4 0.1 -10.7 1.7 -10.3 0.7 0.1 1.2 -0.2 1.2 -0.7 0 -0.5 -1 -1.1 -2.2 -1.3 -1.4 -0.2 -2.5 -1.4 -3.2 -3.8 -0.9 -2.8 -1.7 -3.6 -4 -3.8 -1.7 -0.2 -3.9 -0.8 -5 -1.5 -1.9 -1 -1.6 -1.2 2.9 -2 2.8 -0.5 15.1 -1 27.5 -1 18.4 -0.1 23.9 0.2 30.3 1.7 10.7 2.5 11 2.9 10.2 13.5 -0.4 4.8 -1.3 9.3 -2.1 10.1 -2.2 2.6 -3.6 10.7 -2.4 14.8 1.9 7.1 0.3 19.3 -3 21.9 -1.9 1.6 -6.2 1.5 -12.3 -0.2z"/>
 </g>
 <g fill="#19c3ec">
  <path d="M239.5 275.5 c-1.6 -1.4 -3.4 -2.5 -3.8 -2.5 -1.3 0 -8.7 -5.4 -8.7 -6.2 0 -1.5 7.1 -0.8 7.6 0.7 0.4 0.8 1.2 1.5 2 1.5 0.8 0 1.4 0.5 1.4 1 0 0.6 0.9 1 2 1 1.1 0 2 0.4 2 0.9 0 0.5 0.9 1.1 2 1.4 2.5 0.7 2.8 4.7 0.3 4.7 -1 -0.1 -3.1 -1.2 -4.8 -2.5z"/>
  <path d="M222.3 264.7 c-4.2 -2.8 -4.1 -3.7 0.2 -3.7 3.2 0 3.5 0.2 3.5 3 0 1.7 -0.1 3 -0.2 2.9 -0.2 0 -1.8 -1 -3.5 -2.2z"/>
  <path d="M209.8 257.6 c-2.6 -1.7 -4.8 -3.4 -4.8 -3.8 0 -0.9 5.2 -1 7.4 -0.2 0.9 0.3 1.6 1.2 1.6 2 0 0.8 0.9 1.4 2 1.4 1.3 0 2 0.7 2 2 0 2.8 -2.6 2.4 -8.2 -1.4z"/>
  <path d="M196.3 250.1 c-5.6 -2.8 -6.3 -4.4 -2 -4.9 1.9 -0.2 2.7 0.1 2.7 1.2 0 1.1 0.9 1.6 3 1.6 2.5 0 3 0.4 3 2.5 0 3 -0.1 3 -6.7 -0.4z"/>
  <path d="M149 158 c0 -2.6 0.4 -3 2.8 -3.1 2 -0.1 2.2 -0.2 0.7 -0.6 -1.1 -0.3 -4.3 -1.6 -7.2 -3 -4.1 -2 -5.4 -3.2 -6.4 -6 -0.6 -1.9 -1.7 -3.7 -2.4 -3.9 -0.7 -0.3 -1.6 -1.7 -2 -3.2 -0.8 -3.2 -3.3 -6.2 -5.2 -6.2 -0.7 0 -2.5 -0.7 -3.8 -1.6 -2 -1.3 -2.5 -2.7 -3.1 -8.5 -0.6 -6.5 -0.8 -6.9 -2.8 -6.3 -1.1 0.4 -2.3 1 -2.6 1.3 -2.9 3.9 -12 5.7 -12 2.4 0.1 -1.9 0.2 -2 12.7 -10.6 9.1 -6.3 22 -13 22.7 -11.8 0.8 1.2 6.6 0 6.3 -1.2 -0.1 -0.6 0.9 -1.2 2.3 -1.4 1.5 -0.1 1.8 0 0.7 0.3 -2.4 0.7 -1.6 2.7 1.4 3.5 1.3 0.4 2 0.8 1.4 0.8 -0.5 0.1 -0.2 0.6 0.7 1.1 0.9 0.6 2.4 3.6 3.3 6.8 0.8 3.1 2 6.6 2.7 7.6 0.6 1.1 1.2 4.7 1.4 8 0.1 3.4 0.3 6.5 0.3 6.9 0.1 0.5 0.5 0.6 1 0.3 0.5 -0.3 1.2 0.1 1.5 1 0.3 0.8 1.4 1.4 2.3 1.2 1.8 -0.3 1.9 0.1 2.2 5 0.1 1.3 0.7 2.2 1.7 2.2 0.8 0 2.1 0.6 2.8 1.3 0.8 0.6 2.3 1.9 3.5 2.7 2.6 1.8 2.7 3 0.1 3 -1.1 0 -2 0.7 -2 1.5 0 1.5 -0.9 1.9 -4.5 1.6 -1.7 -0.2 -1.7 0 -0.5 0.8 1.1 0.8 1.1 1.1 0.2 1.1 -2 0 -10.2 3.9 -15 7.1 -2.4 1.6 -4.5 2.9 -4.8 2.9 -0.2 0 -0.4 -1.3 -0.4 -3z"/>
 </g>
 <g fill="#0ac7fe">
  <path d="M272 488.8 c10 -4.3 18 -8.3 18 -8.9 0 -0.4 1.1 -1 2.4 -1.3 1.3 -0.3 3.4 -1.7 4.7 -3.1 1.3 -1.3 2.9 -2.5 3.5 -2.5 0.6 0 2.1 -0.9 3.4 -2 1.3 -1.1 2.7 -2 3.1 -2 1.2 0 -0.2 -3.4 -1.8 -4.3 -0.7 -0.4 -1.3 -1.7 -1.3 -2.8 0 -1.1 0.4 -1.8 0.9 -1.5 0.5 0.4 0.4 -0.5 -0.2 -1.9 -1 -2.1 -1.3 -2.2 -1.9 -0.7 -0.6 1.5 -0.7 1.4 -0.7 -0.3 -0.1 -1.7 -0.3 -1.7 -1.1 -0.5 -0.8 1.3 -1 1.3 -1 -0.2 0 -0.9 0.5 -1.8 1.2 -2 0.8 -0.3 0.2 -1.3 -1.5 -2.8 -1.4 -1.3 -2.4 -2.7 -2.1 -3.2 0.5 -0.7 -1 -1.2 -2.8 -0.9 -0.5 0 -0.8 -0.3 -0.8 -0.9 0 -0.5 0.4 -1 0.9 -1 0.5 0 -0.1 -2 -1.3 -4.4 -1.1 -2.4 -2.4 -4.2 -2.8 -3.9 -0.5 0.2 -0.9 -1.3 -0.9 -3.4 -0.1 -2.8 -0.3 -3.1 -0.6 -1.3 -0.6 2.8 -2 4.1 -4 3.3 -2.1 -0.8 -1.6 -3.6 0.5 -3.1 1.1 0.3 1.9 0 1.9 -0.8 0 -0.7 -0.4 -1.1 -0.8 -0.8 -0.4 0.2 -0.9 -0.1 -1.1 -0.7 -0.2 -0.6 -1.7 -1.2 -3.4 -1.4 -1.7 -0.1 -4.1 -0.8 -5.4 -1.5 -1.5 -0.8 -4.3 -1 -7.8 -0.7 -3 0.3 -5.3 0.4 -5.1 0.3 0.2 -0.2 4.1 -2.2 8.5 -4.5 4.5 -2.3 11.4 -6.8 15.3 -10.1 3.9 -3.3 7.1 -5.6 7.1 -5.1 0 0.5 1.6 1.1 3.5 1.3 2 0.2 3.5 0 3.5 -0.7 0 -1.3 4.8 -3.5 7.7 -3.5 1.3 0 3.5 0.7 4.8 1.6 2.1 1.4 2.5 2.4 2.5 6.8 0 6.3 2.7 9.3 8.7 9.8 3.5 0.3 3.8 0.6 4.1 3.5 0.4 3.8 4.3 5.8 10.9 5.4 l4.4 -0.2 -0.3 4.8 c-0.3 4.4 -0.5 4.8 -3 5.1 -2 0.2 -2.8 0.9 -2.8 2.3 0 1 -0.7 1.9 -1.5 1.9 -1 0 -1.5 1 -1.5 2.9 0 7.2 -27.3 27 -49.5 35.8 -6.9 2.7 -11.2 4.2 -14 4.7 -2.9 0.5 -2.9 0.5 -0.5 -0.6z"/>
  <path d="M297 452 c-0.7 -1 -1.7 -1.7 -2.2 -1.4 -0.4 0.3 -0.8 0 -0.8 -0.5 0 -0.6 0.4 -1.1 0.8 -1.1 1.2 0 4.6 3.9 4.1 4.5 -0.3 0.2 -1.1 -0.4 -1.9 -1.5z"/>
  <path d="M133.3 173.6 c0.4 -1 0.7 -2.1 0.7 -2.6 0 -0.5 0.9 -1.2 2 -1.5 1.1 -0.3 2 -1.5 2 -2.6 0 -1 0.3 -1.9 0.8 -1.8 0.4 0.1 1.7 -0.2 3 -0.6 1.6 -0.5 2.2 -1.5 2.2 -3.6 0 -2.4 -0.4 -2.9 -2.4 -2.9 -1.4 0 -2.8 -0.5 -3.1 -1 -0.8 -1.4 -8.7 -4.6 -10 -4.1 -3 0.9 -7.7 0.7 -8.1 -0.4 -0.3 -0.7 -1.7 -1.5 -3.2 -1.8 -1.5 -0.3 -3.9 -1.8 -5.5 -3.2 -2 -1.9 -3.3 -2.4 -4.9 -1.9 -1.8 0.5 -2 0.3 -1.6 -2 0.3 -1.4 0.2 -2.6 -0.1 -2.6 -0.4 0 -1.3 -1.6 -2 -3.5 -0.7 -1.9 -1.7 -3.5 -2.2 -3.5 -2 0 -5.3 4.1 -5.5 6.7 -0.1 3 -2.6 3.9 -4.9 1.7 -1.2 -1.3 -1.6 -1.1 -2.9 1.3 -0.8 1.5 -3.1 4.6 -5.2 6.8 -6.3 6.7 -10.2 12.3 -10.9 15.4 -0.3 1.6 -1.3 3.5 -2.1 4.2 -1.1 0.9 -1.4 0.7 -1.4 -1.4 0 -1.4 0.7 -3.3 1.6 -4.1 0.8 -0.9 1.3 -2 1 -2.4 -0.8 -1.3 7.3 -14.9 13.5 -22.7 9.8 -12.2 26 -27.6 24.2 -22.9 -0.6 1.6 -0.4 1.5 2.5 -0.2 2 -1.1 2.8 -2.2 2.2 -2.8 -1.5 -1.5 6 -6.5 9.9 -6.6 3.3 0 3.4 0.1 1.5 1.5 -1.8 1.4 -1.8 1.4 0 1.5 1.5 0 1.7 0.6 1.4 3.4 -0.2 1.9 0 3.2 0.4 3 0.4 -0.3 0.8 0.8 0.8 2.3 0 1.6 0.6 3.5 1.3 4.2 1 1 0.9 1.1 -0.5 0.6 -2.9 -1.1 -2.1 2.1 1 4 1.5 1 2.1 1.2 1.5 0.4 -0.7 -0.7 -1.3 -1.6 -1.3 -2.1 0 -1.8 8 6.8 8.5 9.3 0.4 1.5 1.2 3 2 3.2 0.7 0.3 1.8 2.1 2.4 4 1 2.8 2.3 4 6.5 6.1 2.9 1.4 6 2.6 6.8 2.6 0.9 0 2.1 0.6 2.7 1.4 1 1.2 0.8 1.9 -0.8 3.5 -1.2 1.2 -2.7 2.1 -3.5 2.1 -0.8 0 -1.6 0.4 -1.8 0.9 -0.3 0.9 -8.4 7.6 -14 11.7 -1.6 1.2 -2.9 2.6 -2.8 3 0.1 0.5 -0.4 1 -1.1 1.3 -0.8 0.2 -1 -0.2 -0.6 -1.3z"/>
 </g>
 <g fill="#24d3d8">
  <path d="M318.7 193.5 l-6.8 -7.5 4 0 c4 0 4.1 0.1 4.1 3.5 0 3.1 0.3 3.5 2.6 3.5 3.1 0 5.3 2.5 5.4 5.8 0 3.8 -2.3 2.5 -9.3 -5.3z"/>
  <path d="M304.5 179.7 l-5 -4.6 3.8 -0.1 c4.8 0 6.9 2 6.5 6.1 l-0.3 3.2 -5 -4.6z"/>
  <path d="M291 169.2 c-7.9 -5.9 -16.2 -10.8 -25.5 -15.2 -3.8 -1.8 -7.9 -3.8 -8.9 -4.3 -4.4 -2.1 -15.9 -5.6 -17 -5.1 -1 0.5 1.1 -1.4 4.4 -3.9 2.1 -1.6 4.3 -10.7 3.4 -14.3 -0.4 -1.6 -1.3 -4.1 -2 -5.5 -0.7 -1.5 -0.9 -3 -0.4 -3.5 0.4 -0.5 1.1 -2.5 1.4 -4.5 0.7 -4.6 2.2 -8.5 3.5 -9.4 0.6 -0.3 1.1 -1.5 1.1 -2.7 0 -1.8 -0.2 -1.9 -1.7 -0.7 -1.7 1.3 -1.7 1.2 -0.2 -0.6 1.9 -2.3 3.1 -7.6 2.1 -9.2 -1.5 -2.4 -14.9 -6.3 -21.6 -6.3 -2.3 0 -5.1 -0.7 -6.2 -1.5 -3.2 -2.4 13 -0.8 27.6 2.7 11.5 2.8 24.8 7.3 26 8.8 0.3 0.3 2.5 1.2 5 1.9 6.9 2 9.6 5.1 4.5 5.1 -1.6 0 -2.5 0.6 -2.5 1.5 0 0.8 -0.7 1.5 -1.5 1.5 -0.8 0 -1.7 1.4 -2.1 3.5 -0.3 1.9 -1 3.5 -1.6 3.5 -0.5 0 -0.6 2.4 -0.2 6 0.5 4.4 0.3 6 -0.6 6 -1.3 0 -0.9 9.5 0.9 17 2.3 10.3 2.2 10 5 10 3.6 0 5.1 1.7 5.1 5.7 0 2.7 -0.4 3.3 -2.1 3.3 -1.7 0 -1.8 0.2 -0.7 1.3 0.7 0.7 2.1 1.6 3.1 2 0.9 0.3 1.7 1.1 1.7 1.7 0 0.5 0.7 1 1.5 1 0.8 0 1.5 0.7 1.5 1.5 0 0.8 0.9 1.5 2 1.5 1.6 0 2 0.7 2 3 0 1.7 -0.1 3 -0.2 3 -0.2 -0.1 -3.2 -2.2 -6.8 -4.8z"/>
  <path d="M241.8 119.2 c-0.3 -0.9 -0.1 -2.6 0.3 -3.7 0.6 -1.5 0.8 -1.1 0.8 1.8 0.1 4 -0.4 4.8 -1.1 1.9z"/>
 </g>
 <g fill="#1edcd9">
  <path d="M202.3 253.3 c-0.7 -0.2 -1.3 -2 -1.3 -3.9 0 -3.1 -0.3 -3.4 -3 -3.4 -4.4 0 -3.7 -2.3 1.8 -5.9 3.6 -2.4 4.8 -2.7 5 -1.6 0.2 0.9 1.5 1.5 3.4 1.5 5.2 0 7.9 5.2 6.2 11.8 -0.6 1.9 -1.3 2.2 -5.8 2.1 -2.8 0 -5.7 -0.3 -6.3 -0.6z"/>
  <path d="M240 211.2 c0 -1.3 3.9 -3.2 5.5 -2.6 2.9 1.2 1.7 3.4 -2 3.4 -1.9 0 -3.5 -0.3 -3.5 -0.8z"/>
  <path d="M325 200.1 c0 -0.5 -1.8 -2.6 -4 -4.7 -2.2 -2.1 -4 -4.4 -4 -5.1 0 -0.7 -0.6 -1.3 -1.4 -1.3 -0.7 0 -3.6 -2.5 -6.4 -5.5 -2.8 -3 -5.5 -5.5 -6 -5.5 -0.4 0 -2.6 -1.5 -4.8 -3.3 -7.7 -6.6 -24.7 -18.7 -26.1 -18.7 -0.8 0 -2.6 -0.9 -4 -2 -2.2 -1.7 -2.3 -2 -0.7 -2.1 3.2 -0.1 11.9 -2.7 9.6 -2.8 -0.7 -0.1 -1 -0.5 -0.7 -1.1 0.3 -0.5 0.1 -1 -0.6 -1 -0.6 0 -0.9 -0.8 -0.6 -2 0.3 -1.1 0.2 -2 -0.3 -2 -0.4 0 -1.1 -0.7 -1.4 -1.6 -0.5 -1.4 -0.4 -1.5 0.9 -0.4 1.8 1.5 1.9 0.7 0.4 -2.2 -0.6 -1.1 -1.3 -4.6 -1.5 -7.7 -0.2 -3.1 -0.6 -7.9 -0.9 -10.7 -0.6 -4.1 -0.3 -5.4 1.2 -6.9 1.3 -1.3 1.4 -2 0.5 -2.3 -1.9 -0.6 -1.4 -3.2 0.7 -3.2 1.5 0 2.1 -1 2.6 -4 0.8 -4.5 0.5 -5.5 -1.2 -5.5 -1.2 0 -4.2 -3.3 -4.3 -4.7 0 -1.5 4.5 -0.7 9 1.4 2.5 1.2 4.7 2.2 5 2.3 4.9 1.7 21.9 11.2 30.2 16.8 2.6 1.8 5.5 4.7 6.3 6.5 0.9 1.7 2 3.2 2.4 3.2 0.5 0 1.1 1.9 1.4 4.2 0.3 2.4 1.1 4.4 1.6 4.6 0.6 0.2 1.1 1.2 1.1 2.3 0 1.3 0.7 1.9 2.4 1.9 1.6 0 2.6 0.7 3 2.3 0.9 3.5 0.7 7.7 -0.4 7.7 -0.5 0 -1 1.8 -1 4 0 2.3 -0.5 4 -1.1 4 -0.7 0 -0.5 1 0.5 2.5 2 3 2.1 8.4 0.2 9.1 -1.9 0.7 -0.1 6.4 2 6.4 0.8 0 1.4 0.6 1.4 1.4 0 1.5 3 2.6 7.3 2.6 2 0 3 -0.6 3.4 -1.9 0.5 -2 3 -3.1 7.6 -3.1 2.4 0 2.7 0.4 2.7 3.1 0 2.4 -1 4 -4.6 7.2 -2.6 2.3 -5.9 4.9 -7.3 5.8 -1.4 0.9 -6 4.2 -10.1 7.3 -7.2 5.3 -10 6.7 -10 4.7z"/>
 </g>
 <g fill="#19e7da">
  <path d="M201.6 252.7 c-1.7 -1.4 -2.6 -2.9 -2.2 -3.5 1 -1.6 4.6 -1.5 4.6 0.1 0 0.9 0.2 0.9 0.9 -0.1 0.6 -1 1 -0.8 1.4 1 1.5 5.5 0 6.3 -4.7 2.5z"/>
  <path d="M193.8 248.7 c-3.4 -1.3 -3.5 -2 -0.3 -4.1 3.6 -2.4 4.5 -2 4.5 1.9 0 3.8 -0.1 3.8 -4.2 2.2z"/>
  <path d="M201.7 240.3 c-0.4 -0.6 3.5 -4 8.6 -7.7 l9.2 -6.7 0.3 3.3 c0.2 1.8 -0.1 3.4 -0.7 3.6 -0.6 0.2 -1.1 1 -1.1 1.8 0 0.8 -0.5 1.4 -1.1 1.4 -0.6 0 -1.8 0.9 -2.7 2 -1.9 2.1 -11.5 3.9 -12.5 2.3z"/>
  <path d="M341 188.1 c0 -1.7 1.8 -2.1 2.4 -0.6 0.3 0.9 0 1.5 -0.9 1.5 -0.8 0 -1.5 -0.4 -1.5 -0.9z"/>
  <path d="M344.4 185.8 c-0.4 -0.6 0.3 -1.9 1.6 -3 1.4 -1.2 1.8 -1.9 0.9 -2 -5.2 -0.6 -7.1 -0.3 -7.6 0.9 -0.4 1 -0.9 1.1 -1.8 0.3 -0.9 -0.8 -1.4 -0.6 -1.9 0.5 -0.9 2.6 -3.5 -0.6 -3.2 -3.9 0.3 -2 -0.1 -2.6 -1.6 -2.6 -1.1 0 -1.7 -0.4 -1.3 -0.9 0.3 -0.5 0.2 -1.2 -0.3 -1.5 -0.5 -0.3 -0.9 -3.1 -1 -6.3 -0.2 -3.7 0.1 -5.3 0.7 -4.4 0.6 0.9 1.1 1 1.5 0.2 0.4 -0.6 0 -1.4 -0.8 -1.7 -0.9 -0.3 -1.3 -1 -1 -1.5 0.3 -0.5 0.1 -0.9 -0.3 -0.9 -0.5 0 -0.7 -1.6 -0.5 -3.5 0.2 -1.9 0.8 -3.5 1.2 -3.5 0.5 0 0.7 -0.8 0.5 -1.7 -0.2 -1 -0.4 -2.1 -0.4 -2.5 -0.1 -0.5 -0.8 -0.8 -1.7 -0.8 -0.8 0 -1.2 0.5 -0.9 1.1 0.4 0.6 -0.2 0.5 -1.4 -0.3 -1.7 -1.1 -1.8 -1.4 -0.5 -2.1 1.2 -0.7 1.3 -1.2 0.3 -2.3 -0.6 -0.7 -1.5 -1.1 -2 -0.8 -1.5 0.9 -1 -0.6 1.1 -3.7 l2.1 -2.8 -2.6 -0.7 c-1.4 -0.3 -2.5 -1.1 -2.6 -1.8 -0.4 -9.7 -1.7 -13.4 -4.3 -11.9 -0.6 0.3 -0.8 0.3 -0.4 -0.2 0.4 -0.4 -0.4 -2.1 -1.7 -3.7 -3.3 -3.9 -3.1 -4.9 0.5 -3.7 1.8 0.7 2.7 1.6 2.3 2.2 -0.3 0.7 -0.3 0.9 0.2 0.5 1 -1 3.6 0.5 12.5 7.1 16.8 12.5 45 38.2 45 41.1 0 0.8 -1.5 2.5 -3.3 3.7 -8.3 5.6 -15.6 10.9 -19.9 14.4 -4.9 4.1 -6.2 4.6 -7.4 2.7z"/>
 </g>
 <g fill="#10d0fb">
  <path d="M302.2 475.8 c0.2 -0.7 2.8 -2.5 5.8 -4.1 7.4 -3.7 25 -21.7 25.1 -25.5 0 -1.5 0.2 -3.5 0.4 -4.4 0.2 -1.1 -0.3 -1.5 -1.5 -1.3 -2.2 0.4 -3.2 -1.6 -1.9 -3.6 1.3 -2.1 1.1 -2.5 -1.7 -3.8 -2.1 -0.9 -2.5 -1.6 -2 -3.6 0.8 -3.1 -1.5 -4.3 -5.3 -2.8 -1.9 0.7 -3 0.6 -3.6 -0.2 -2.5 -2.9 -3.5 -5.9 -3.5 -10.4 0 -4 -0.4 -5.1 -2.2 -6.3 -1.7 -1 -2.9 -1.1 -4.5 -0.4 -1.3 0.6 -2.3 1.4 -2.3 1.9 0 0.9 -3.2 4.3 -3.7 4 -0.2 -0.1 -1.1 -0.9 -1.9 -1.8 -0.9 -0.8 -2.9 -1.5 -4.5 -1.5 -1.6 0 -2.9 -0.5 -2.9 -1.1 0 -0.6 2.2 -3.6 5 -6.6 6.4 -7 11.3 -15.8 14.1 -25.5 2.5 -8.4 4.9 -10.5 4.9 -4.2 0 3.1 0.3 3.5 2.3 3.2 1.4 -0.2 2.3 -1.1 2.5 -2.7 0.4 -2.3 0.6 -2.3 6.8 -1.7 8.2 0.8 9.3 1.3 10 4.2 0.4 1.4 1.6 2.7 3 3 1.3 0.3 2.4 0.9 2.4 1.3 0 0.4 1.1 1.4 2.5 2.1 1.6 0.8 2.5 2.2 2.5 3.7 0 1.3 0.6 2.3 1.3 2.3 0.7 0 1.8 1.4 2.4 3 0.8 2 1.8 3 3.2 3 1.2 0 2.1 0.5 2.1 1 0 0.6 1.8 1 4 1 l4 0 0 4 c0 2.2 -0.4 4 -1 4 -0.5 0 -1 2 -1 4.5 0 2.5 -0.3 4.5 -0.7 4.5 -0.5 0 -1.6 2.1 -2.7 4.8 -2.8 7 -12.1 20.5 -20.1 29 -7.5 8 -20.8 18.8 -30.4 24.6 -6.3 3.9 -7.5 4.3 -6.9 2.4z m39.6 -38.9 c0.2 -1.2 -0.3 -1.5 -2.1 -1.2 -1.3 0.3 -2.4 1 -2.4 1.7 0 1.9 4.1 1.4 4.5 -0.5z"/>
  <path d="M286.2 415.1 c0.7 -1.1 1.8 -2.3 2.5 -2.5 2.2 -0.9 1.4 0.8 -1.3 2.8 -2.5 1.8 -2.5 1.8 -1.2 -0.3z"/>
  <path d="M224.3 265.5 l-2.8 -2.4 3.8 -0.1 c3.3 0 3.7 0.3 3.7 2.5 0 3.1 -1.1 3.2 -4.7 0z"/>
  <path d="M90.5 133 c0.5 -0.8 1.6 -2.3 2.4 -3.3 5.1 -6 5.1 -6.1 5.1 -4.4 0 1.6 -2.7 4.9 -6.4 7.7 -1.7 1.3 -1.9 1.3 -1.1 0z"/>
  <path d="M99.6 122.7 c0.6 -1.6 3.3 -3.1 4.2 -2.2 0.3 0.3 0 0.5 -0.7 0.5 -0.7 0 -0.9 0.5 -0.5 1.3 0.4 0.6 0.4 0.9 -0.1 0.5 -0.4 -0.4 -1.4 -0.3 -2.2 0.4 -1.1 0.8 -1.2 0.7 -0.7 -0.5z"/>
  <path d="M113.5 112 c2.1 -3.4 26 -16.6 27 -14.9 0.4 0.5 -0.1 0.9 -0.9 0.9 -0.9 0 -2.1 0.9 -2.8 2 -1.3 2 -10.4 7.7 -18.2 11.2 -4.3 2 -6 2.3 -5.1 0.8z"/>
  <path d="M146.6 96.2 c-0.6 -1.1 1.9 -4.2 3.4 -4.2 1.8 0 2 2 0.3 2.7 -1 0.4 -2.1 1.1 -2.4 1.6 -0.4 0.5 -0.9 0.5 -1.3 -0.1z"/>
 </g>
 <g fill="#17d5f4">
  <path d="M333.9 453.1 c2.2 -2.1 3.7 -4.1 3.4 -4.5 -0.3 -0.3 0.2 -0.8 1.1 -1.2 0.9 -0.3 1.6 -1.1 1.6 -1.8 0 -0.6 1.4 -2.2 3 -3.5 1.7 -1.3 3 -3.1 3 -4 0 -1 1.3 -3.5 3 -5.7 1.6 -2.1 3 -4.6 3 -5.5 0 -0.9 0.7 -2.2 1.5 -2.9 0.8 -0.7 1.5 -1.8 1.5 -2.6 0 -1.3 3 -8.4 4 -9.4 1.2 -1.2 0.9 -3 -0.5 -3 -0.8 0 -1.9 -1.6 -2.5 -3.7 -1.3 -5.1 -2 -5.9 -5.3 -6.7 -1.5 -0.4 -2.5 -1.1 -2.2 -1.6 0.3 -0.6 -0.1 -1 -1.1 -1 -1.4 0 -1.5 -0.2 -0.3 -1.7 0.7 -1 0.9 -1.5 0.5 -1.1 -1.5 1.3 -3.4 -1.1 -2.8 -3.5 0.3 -1.2 0.2 -1.9 -0.3 -1.5 -0.4 0.4 -1.7 -0.3 -2.9 -1.5 -1.1 -1.3 -3.4 -2.8 -4.9 -3.5 -1.5 -0.7 -2.5 -1.7 -2.2 -2.2 0.3 -0.6 0.1 -1 -0.5 -1 -0.6 0 -0.8 -0.4 -0.5 -1 0.7 -1.1 0.5 -1.1 -3.7 -1.4 -1.4 0 -3 -0.4 -3.4 -0.8 -1.3 -1.4 -2.4 -0.9 -2.4 1.1 0 2.6 -1.9 3.8 -5.7 3.6 -2.3 -0.2 -3.3 0.2 -3.6 1.6 -0.3 1.1 -1.3 1.9 -2.2 1.9 -1.9 0 -1.8 -2.4 0.4 -13.4 0.7 -3.2 1.1 -8.8 0.9 -12.3 -0.2 -3.4 0 -6.3 0.5 -6.3 0.4 0 1.2 -1.1 1.9 -2.5 0.8 -1.8 2.1 -2.6 5.4 -3.1 2.8 -0.4 4.4 -1.1 4.4 -2 0 -1.9 5.7 -1.8 7.6 0.1 0.9 0.8 2.9 1.5 4.5 1.5 1.9 0 2.9 0.5 2.9 1.5 0 0.8 1.2 1.7 2.8 2 1.5 0.3 4.3 1 6.3 1.5 2 0.6 5.5 1 7.8 1 3 0 4.1 0.4 4.1 1.5 0 1 1 1.5 2.9 1.5 4.3 0 6.1 2.3 6.1 8.1 0 4.2 0.3 4.9 2 4.9 2.4 0 2.4 0.3 0.5 11.6 -3.3 19.1 -9.5 34.4 -20.4 50.8 -6.4 9.6 -20.3 25.6 -22.3 25.6 -0.5 0 0.9 -1.7 3.1 -3.9z"/>
  <path d="M310.4 343.3 c-0.8 -2.1 -1.9 -4.6 -2.4 -5.5 -0.9 -1.5 -0.6 -1.8 1.9 -1.8 3.3 0 4.1 1.4 4.1 7.1 0 4.9 -1.7 5 -3.6 0.2z"/>
  <path d="M240.3 275.7 c-4.2 -2.8 -4.1 -3.7 0.2 -3.7 3.2 0 3.5 0.2 3.5 3 0 1.7 -0.1 3 -0.2 2.9 -0.2 0 -1.8 -1 -3.5 -2.2z"/>
  <path d="M226.8 267.2 c-3.7 -2.2 -3.5 -3.2 0.7 -3.2 3.1 0 3.5 0.3 3.5 2.5 0 2.9 -0.6 3 -4.2 0.7z"/>
  <path d="M218.8 262.2 c-3.7 -2.2 -3.5 -3.2 0.7 -3.2 3.1 0 3.5 0.3 3.5 2.5 0 2.9 -0.6 3 -4.2 0.7z"/>
  <path d="M205.3 255 c-2.7 -1.1 -2.1 -4 0.8 -4 1.4 0 1.9 0.7 1.9 2.5 0 1.4 -0.1 2.5 -0.2 2.4 -0.2 0 -1.3 -0.4 -2.5 -0.9z"/>
  <path d="M146.6 94.6 c0.7 -1.9 3.5 -2.9 4.7 -1.7 0.7 0.7 0.1 1.4 -1.7 2.1 -3.5 1.3 -3.6 1.3 -3 -0.4z"/>
  <path d="M155.6 92.2 c-1.2 -1.1 -0.5 -1.8 2.8 -3 3.3 -1.2 6.6 -0.8 6.6 0.9 0 0.5 -1 0.9 -2.3 0.9 -1.3 0 -2.7 0.3 -3.1 0.7 -0.9 0.9 -3.3 1.2 -4 0.5z"/>
  <path d="M168.5 87 c-0.3 -0.5 0 -1 0.9 -1 0.8 0 2.3 -0.3 3.3 -0.7 1.6 -0.6 1.6 -0.5 0.4 1 -1.5 1.9 -3.7 2.2 -4.6 0.7z"/>
 </g>
 <g fill="#19d9ef">
  <path d="M355.1 427.5 c2.7 -7 3.5 -8.5 4.7 -8.5 1 0 0.8 1 -0.9 3.8 -2.3 3.8 -4.5 6.6 -3.8 4.7z"/>
  <path d="M369.8 385.4 c-0.3 -0.3 -0.2 -2.1 0.2 -4 0.4 -1.9 0.4 -3.7 -0.1 -3.9 -0.9 -0.6 -2.5 -10.2 -2 -11.9 0.5 -1.8 -1 -5.7 -1.9 -5.1 -0.6 0.3 -1 0.1 -1 -0.4 0 -0.6 -1.3 -1.1 -3 -1.1 -2 0 -3 -0.5 -3 -1.5 0 -1.4 -0.3 -1.4 -3 0 -2.3 1.2 -3 1.2 -2.8 0.3 0.2 -0.7 -0.2 -1.2 -0.9 -1.1 -0.6 0.2 -2.4 -0.4 -3.9 -1.2 -2.2 -1.1 -3 -1.2 -3.7 -0.2 -0.7 0.9 -1 0.9 -1.4 -0.1 -0.2 -0.6 -0.9 -1 -1.4 -0.6 -1 0.6 -3.9 -1.9 -3.9 -3.4 0 -0.5 -1 -1 -2.2 -1 -3.7 0 -5.3 -0.6 -6 -2.2 -0.6 -1.3 -0.7 -1.3 -0.7 0.1 -0.1 1.2 -1.4 1.9 -4.5 2.3 -4.3 0.7 -6.3 2.6 -4.9 4.8 0.3 0.7 0.1 0.8 -0.6 0.4 -0.8 -0.6 -1.1 0.5 -0.8 3.9 0.3 4.1 0.2 4.5 -1 2.9 -0.7 -1 -1.3 -2.6 -1.3 -3.7 0 -1 -0.6 -2.5 -1.4 -3.2 -0.7 -0.8 -2 -4.4 -2.7 -8 -0.7 -3.6 -1.7 -6.5 -2.1 -6.5 -0.5 0 -0.7 -0.4 -0.3 -0.9 0.3 -0.5 0.1 -1.2 -0.4 -1.5 -0.5 -0.3 -2.3 -3.1 -4.1 -6.2 -1.7 -3.1 -3.6 -6.2 -4.1 -6.8 -0.5 -0.6 -2.7 -3.3 -4.9 -5.9 -2.2 -2.7 -3.8 -5.3 -3.5 -5.8 0.4 -0.5 0 -0.9 -0.8 -0.9 -2.5 0 -6.7 -5.4 -6.7 -8.7 0 -1.8 0.5 -3.5 1.1 -3.8 0.6 -0.4 3.9 -0.4 7.5 0 4.5 0.5 6.4 1.1 6.4 2.1 0 0.9 1.1 1.4 2.9 1.4 1.6 0 3.6 0.3 4.5 0.6 1.1 0.4 1.6 0 1.6 -1.2 0 -1.8 4 -4.4 6.8 -4.4 3.1 0 4.8 -3.8 7 -15 0.7 -3.2 1.1 -3.5 4.4 -3.8 4.2 -0.4 7.8 1.2 7.8 3.3 0 0.8 0.9 1.5 1.9 1.5 1 0 2.1 0.7 2.5 1.5 0.3 0.8 1.1 1.5 1.9 1.5 0.7 0 1.9 2 2.6 4.5 1.2 4.2 1.6 4.5 4.6 4.5 2.9 0 3.4 0.4 4 3 0.4 1.7 1.3 3 2.2 3 0.8 0 2.2 1.8 3.1 4 0.9 2.2 2.3 4 2.9 4 0.7 0 1.6 1.2 1.9 2.7 0.4 1.5 1.3 3.4 2.1 4.1 0.7 0.7 1.3 2 1.3 2.7 0 0.7 0.8 2.1 1.7 3 3.6 3.6 6.3 17.8 6.8 35.5 0.4 10.2 0.1 14.5 -1 17.8 -0.9 2.4 -1.7 5.2 -1.8 6.2 -0.4 2.3 -1.1 3.2 -1.9 2.4z"/>
  <path d="M235.8 272.7 c-10.1 -6.1 -17.8 -11.2 -17.8 -11.9 0 -1.2 5.8 -1 8.1 0.2 1 0.6 1.9 1.7 1.9 2.5 0 0.9 1 1.5 2.5 1.5 1.6 0 2.5 0.6 2.5 1.5 0 0.8 0.7 1.5 1.5 1.5 3.2 0 6.5 2.3 6.5 4.7 0 2.8 -0.5 2.8 -5.2 0z"/>
  <path d="M212.9 259.1 c-1.3 -1 -3.9 -2.6 -5.6 -3.5 -4.3 -2.2 -4.2 -3.6 0.2 -3.6 2.8 0 3.5 0.4 3.5 2 0 1.6 0.7 2 3 2 2.5 0 3 0.4 3 2.5 0 3 -0.9 3.1 -4.1 0.6z"/>
  <path d="M195.8 249.4 c-3.7 -2 -3.5 -2.9 0.7 -3.2 3.1 -0.2 3.5 0 3.5 2.3 0 2.9 -0.5 3 -4.2 0.9z"/>
 </g>
 <g fill="#1bdfed">
  <path d="M372 351.1 c0 -2.2 -0.4 -4.1 -0.9 -4.3 -0.5 -0.1 -1.1 -2.1 -1.4 -4.3 -1.2 -8.4 -3.6 -15.5 -5.3 -15.5 -0.8 0 -1.4 0.5 -1.4 1 0 0.6 -1 1 -2.2 1 -1.7 0 -1.9 -0.3 -0.9 -0.9 1 -0.7 0.8 -1.2 -0.9 -2.4 -1.2 -0.8 -1.7 -1.8 -1.1 -2.1 0.5 -0.4 1.2 -0.2 1.6 0.4 0.9 1.4 2.2 1.2 2.9 -0.5 0.3 -0.8 -0.1 -2 -0.8 -2.7 -0.7 -0.7 -1.6 -2.6 -2 -4.1 -0.7 -2.8 -2.4 -3.5 -4.3 -1.6 -0.8 0.8 -1.3 0.7 -1.8 -0.2 -0.5 -0.8 -0.4 -1 0.4 -0.5 1.9 1.2 2.3 -2 0.6 -5.3 -1.7 -3.5 -2.7 -4 -2.4 -1.3 0.4 3.9 -0.1 4.8 -1.5 2.9 -1 -1.3 -1.6 -1.5 -2.1 -0.7 -1.1 1.7 -2.6 -1 -1.9 -3.2 0.3 -1 0.1 -1.8 -0.5 -1.8 -0.6 0 -1.1 -0.7 -1.1 -1.5 0 -0.8 -0.6 -1.2 -1.3 -0.9 -0.8 0.3 -1.4 -0.1 -1.5 -0.8 -0.2 -3.1 -1.2 -6.2 -2.4 -6.9 -1.6 -1 -3 -0.1 -2.2 1.4 0.4 0.7 0.3 0.8 -0.2 0.4 -1.2 -1.1 -1.2 -3 -0.1 -3.8 0.9 -0.7 -1.3 -4.9 -2.5 -4.9 -0.5 0 -0.8 0.8 -0.8 1.7 0 2.5 -2.1 0.1 -2.3 -2.6 -0.1 -2.3 -3.1 -4.6 -4.6 -3.7 -0.5 0.3 -1.2 2.3 -1.5 4.3 -0.3 2.1 -0.8 4.9 -1 6.3 -0.2 1.4 -0.5 2.7 -0.6 3 -0.1 0.3 -0.2 1.3 -0.1 2.2 0.2 1.2 -0.3 1.6 -1.3 1.2 -0.9 -0.3 -1.6 -0.1 -1.6 0.5 0 0.6 -1.1 1.1 -2.4 1.1 -1.4 0 -3.3 1.2 -4.7 3 -1.3 1.6 -2.9 3 -3.5 3 -1.2 0 -2.9 4.6 -2.5 6.4 0.1 0.5 -0.5 0.4 -1.3 -0.4 -0.9 -0.7 -1.6 -2.3 -1.6 -3.6 0 -1.2 -0.4 -2.5 -0.9 -2.8 -1.7 -1.1 0.8 6.8 2.6 8.2 1.6 1.3 1.5 1.4 -1.5 1 -2.9 -0.4 -3.3 -0.2 -2.9 1.4 0.3 1 0 1.8 -0.5 1.8 -0.6 0 -0.3 0.9 0.7 2 1.7 1.9 1.7 2 0 2.6 -1.2 0.5 -2.4 -0.3 -4.3 -2.7 -6.2 -8.2 -24.2 -24.4 -37.6 -33.9 -2 -1.4 -3.6 -3.1 -3.6 -3.7 0 -0.7 -0.7 -1.3 -1.5 -1.3 -1 0 -1.5 -1.1 -1.5 -3.5 0 -2.5 0.4 -3.5 1.5 -3.5 0.9 0 2 -1 2.6 -2.3 0.7 -1.5 2.6 -2.8 5.7 -3.7 2.5 -0.7 5.9 -2.7 7.5 -4.3 2.6 -2.6 2.8 -3.2 1.7 -5.3 -1.7 -3.2 -0.7 -10.1 1.9 -12.5 1.2 -1.1 2.1 -2.9 2.1 -3.9 0 -1.8 0.7 -2 6.5 -2 6.3 0 6.6 0.1 7.1 2.8 0.6 2.7 0.7 2.7 8.7 2.9 l8.2 0.2 3.5 4 c2.2 2.5 4.4 4.1 5.8 4.1 4.7 0 28 23.4 37.7 38 12.5 18.9 20.7 44 19.3 59.3 -0.3 3.4 -1.8 1.6 -1.8 -2.2z m-79.1 -44.3 c-1.2 -1.8 -2.4 -3.5 -2.5 -3.7 -0.2 -0.1 -0.8 0 -1.4 0.4 -0.8 0.5 -0.8 1.1 0.1 2.1 0.6 0.8 0.8 1.4 0.3 1.4 -1.5 0.1 2.9 3 4.4 3 1 0 0.7 -0.9 -0.9 -3.2z m56.7 -3.4 c-0.3 -0.9 -0.6 -2 -0.6 -2.5 0 -0.5 -0.7 -0.9 -1.5 -0.9 -1.8 0 -2 3.6 -0.2 4.3 2.3 1 2.9 0.7 2.3 -0.9z"/>
  <path d="M352.1 319.7 c-1.2 -1.5 -0.5 -2.7 1.6 -2.7 0.7 0 1.3 0.9 1.3 2 0 2.3 -1.3 2.6 -2.9 0.7z"/>
  <path d="M245.5 278.1 c-2.6 -0.8 -10.9 -6 -14.3 -8.8 l-2.7 -2.2 3.8 -0.1 c2.6 0 3.7 0.4 3.7 1.5 0 0.9 0.9 1.5 2.5 1.5 3.8 0 9.5 4.1 9.5 6.8 0 1.2 -0.1 2.2 -0.2 2.1 -0.2 -0.1 -1.2 -0.4 -2.3 -0.8z"/>
  <path d="M216.8 261.1 c-2 -1 -4.9 -2.7 -6.5 -3.8 -1.5 -1.1 -3.8 -2.3 -5 -2.7 -1.5 -0.5 -2 -1.2 -1.6 -2.4 0.5 -1.4 0.3 -1.5 -0.7 -0.5 -1 1 -1.9 0.8 -3.9 -0.6 -1.4 -1 -3.9 -2.2 -5.5 -2.8 -2.6 -0.8 -2.7 -1 -1.3 -2.5 1.7 -1.6 5.7 -1.4 5.7 0.3 0 0.5 0.7 0.9 1.5 0.9 0.9 0 2.5 0.9 3.7 2 1.2 1.1 3 2 4 2 1.1 0 1.8 0.7 1.8 2 0 1.6 0.7 2 3.5 2 1.9 0 3.5 0.4 3.5 0.9 0 0.5 1.4 1.2 3 1.6 2.3 0.5 3 1.2 3 3.1 0 2.8 -0.4 2.9 -5.2 0.5z"/>
 </g>
 <g fill="#1ee7ec">
  <path d="M354.6 298.2 c-0.2 -0.4 -0.1 -1.4 0.3 -2.1 0.6 -1 1 -0.9 1.4 0.3 0.6 1.6 -0.8 3.2 -1.7 1.8z"/>
  <path d="M262.5 289.4 c-12.9 -9 -24.2 -16.4 -25.4 -16.4 -0.3 0 -3.7 -2.1 -7.6 -4.6 -6.2 -4.1 -13.6 -8.4 -23.1 -13.4 -1.7 -0.9 -2.8 -2.2 -2.6 -2.9 0.3 -0.8 0 -1.1 -0.7 -0.7 -1.3 0.9 -11 -3.5 -11 -4.9 0 -1.5 4.8 -4.7 5.9 -4 0.6 0.4 0.9 0.1 0.8 -0.7 -0.2 -0.7 0.5 -1.2 1.4 -1.2 1 0.1 1.5 -0.2 1.2 -0.7 -0.3 -0.5 0.3 -1.2 1.3 -1.6 1 -0.3 2.2 -1.2 2.6 -2 0.4 -0.7 1.3 -1.3 1.8 -1.3 0.6 0 0.8 0.4 0.5 0.9 -0.7 1.1 1.3 0.9 3.2 -0.2 1.5 -1 0.5 -3 -1.1 -2.1 -0.7 0.3 -0.1 -0.4 1.3 -1.5 1.4 -1.1 3.3 -2.1 4.3 -2.1 1 0 1.6 -0.4 1.3 -0.9 -0.3 -0.5 1.3 -2.1 3.7 -3.6 2.3 -1.6 7.8 -5.6 12.2 -9 9.6 -7.4 11.5 -8.4 13.5 -7.6 0.9 0.3 7.1 4 13.8 8.1 6.7 4.1 13.4 8.2 14.9 9 1.6 0.9 3.9 2.3 5.3 3.2 16.3 10.3 24.8 16.1 31.5 21.2 11.1 8.4 29 24.9 27.5 25.4 -1.3 0.5 -8.5 -4.9 -11.3 -8.5 -2.4 -3 -10 -7.4 -13.3 -7.8 -1.7 -0.1 -3.9 -1.7 -5.9 -4.1 -2 -2.4 -4.2 -3.9 -5.6 -4 -1.3 -0.1 -3.6 -0.4 -5.1 -0.9 -2.2 -0.6 -2.9 -0.3 -3.5 1.1 -0.9 2.1 -3.3 3 -3.3 1.3 0 -0.5 -0.4 -0.8 -0.9 -0.5 -1 0.7 -3.4 -1.8 -2.5 -2.7 0.3 -0.3 0.3 -1.4 0 -2.4 -0.4 -1.2 -1.7 -1.9 -4.2 -2.1 -2.8 -0.2 -3.5 0.1 -3.1 1.2 0.3 0.8 -0.5 2.6 -1.9 3.9 -1.6 1.7 -2.2 3 -1.7 4.2 0.4 1.3 0.3 1.6 -0.5 1.1 -1.9 -1.2 -1.4 0.8 0.8 3.2 2.2 2.3 2.6 4.2 0.9 4.2 -0.6 0 -0.9 0.9 -0.6 1.9 0.3 1.3 -0.1 2.1 -1.5 2.4 -1.1 0.3 -1.7 1 -1.3 1.6 0.3 0.6 -0.1 1.1 -0.9 1.1 -0.9 0 -1.6 0.5 -1.6 1 0 0.6 -0.9 1 -2 1 -1 0 -2.5 0.6 -3.2 1.3 -0.7 0.8 -2 1.2 -2.8 1 -1.6 -0.4 -4.5 4 -4.2 6.4 0.2 0.6 2 2.9 4.2 5.1 2.2 2.2 4 4.7 4 5.6 0 2 0.4 2.2 -5.5 -2z m-52.3 -40.6 c-0.4 -1.6 -0.2 -1.9 0.8 -1.3 0.7 0.5 0.5 -0.4 -0.6 -1.8 -1.2 -1.7 -2.8 -2.6 -4.4 -2.6 -1.8 0.1 -2 0.3 -0.7 0.6 1.6 0.4 1.8 1.1 1.2 3.9 -0.5 3.1 -0.4 3.4 1.9 3.4 2 0 2.3 -0.4 1.8 -2.2z"/>
 </g>
</svg>